<?xml version="1.0" encoding="utf-8"?>
<!-- Generator: Adobe Illustrator 16.0.0, SVG Export Plug-In . SVG Version: 6.00 Build 0)  -->
<!DOCTYPE svg PUBLIC "-//W3C//DTD SVG 1.1//EN" "http://www.w3.org/Graphics/SVG/1.1/DTD/svg11.dtd">
<svg version="1.1" id="Layer_1" xmlns="http://www.w3.org/2000/svg" xmlns:xlink="http://www.w3.org/1999/xlink" x="0px" y="0px"
	 width="387px" height="284px" viewBox="0 0 387 284" enable-background="new 0 0 387 284" xml:space="preserve">
<g>
	<g>
		<polyline fill-rule="evenodd" clip-rule="evenodd" fill="#FDFDFE" points="1368.635,-393.768 1355.894,-365.641 
			1603.126,-268.819 1627.748,-323.167 		"/>
		<g>
			<path d="M1366.476-395.029c-4.246,9.375-8.494,18.751-12.74,28.126c-0.714,1.575-0.111,3.044,1.494,3.672
				c41.359,16.198,82.721,32.396,124.08,48.593c41.051,16.077,82.102,32.152,123.152,48.229c0.953,0.373,2.4-0.217,2.822-1.149
				c8.208-18.116,16.415-36.231,24.623-54.348c1.319-2.913-2.988-5.457-4.318-2.523c-8.207,18.116-16.414,36.231-24.621,54.348
				c0.94-0.383,1.882-0.766,2.822-1.149c-41.359-16.197-82.721-32.395-124.08-48.592c-41.051-16.077-82.102-32.153-123.152-48.229
				c0.498,1.224,0.996,2.448,1.494,3.672c4.248-9.375,8.494-18.751,12.742-28.126
				C1372.112-395.418,1367.805-397.963,1366.476-395.029L1366.476-395.029z"/>
		</g>
	</g>
	<g>
		<polyline fill-rule="evenodd" clip-rule="evenodd" fill="#FDFDFE" points="1558.943,-322.401 1355.894,-398.545 
			1381.277,-456.356 1667.519,-343.552 1594.494,-309.49 1575.865,-315.82 		"/>
		<g>
			<path d="M1559.608-324.812c-45.167-16.938-90.334-33.875-135.5-50.812c-22.517-8.444-45.033-16.888-67.551-25.332
				c0.498,1.224,0.996,2.448,1.494,3.672c8.462-19.271,16.923-38.541,25.385-57.812c-0.941,0.383-1.883,0.766-2.824,1.149
				c38.162,15.039,76.322,30.078,114.484,45.117c52.559,20.713,105.117,41.425,157.676,62.138c4.693,1.85,9.388,3.7,14.082,5.549
				c-0.199-1.523-0.398-3.046-0.598-4.569c-16.463,7.679-32.925,15.357-49.387,23.037c-7.496,3.496-14.99,6.992-22.486,10.488
				c-1.893,0.883-0.604-0.183,0.715,0.265c-1.873-0.636-3.744-1.272-5.617-1.909c-4.316-1.467-8.635-2.934-12.951-4.401
				c-3.063-1.041-4.365,3.79-1.33,4.821c4.318,1.467,8.635,2.934,12.952,4.401c2.407,0.818,5.472,2.672,7.968,1.508
				c7.193-3.356,14.388-6.711,21.582-10.067c17.025-7.942,34.052-15.884,51.078-23.826c2.184-1.019,1.182-3.868-0.598-4.569
				c-38.16-15.039-76.322-30.078-114.482-45.117c-52.559-20.713-105.118-41.425-157.677-62.138c-4.694-1.85-9.388-3.7-14.081-5.549
				c-0.943-0.372-2.413,0.213-2.824,1.149c-8.461,19.271-16.922,38.541-25.383,57.812c-0.688,1.564-0.137,3.061,1.494,3.672
				c45.166,16.938,90.332,33.875,135.499,50.812c22.517,8.444,45.034,16.888,67.55,25.332
				C1561.304-318.856,1562.599-323.691,1559.608-324.812L1559.608-324.812z"/>
		</g>
	</g>
	<g>
		<path fill-rule="evenodd" clip-rule="evenodd" fill="#FDFDFE" d="M1346.495-293.26v68.624c0,0,106.782-23.501,117.315-28.201
			c12.031-14.075,7.499-40.423,7.499-40.423H1346.495z"/>
		<g>
			<path d="M1343.995-293.26c0,22.875,0,45.749,0,68.624c0,1.689,1.59,2.758,3.164,2.411c24.193-5.326,48.359-10.794,72.47-16.479
				c13.282-3.133,26.639-6.168,39.739-10.006c1.492-0.438,2.982-0.893,4.438-1.441c3.431-1.294,5.324-5.791,6.732-8.918
				c3.818-8.47,4.452-18.271,3.969-27.432c-0.131-2.478-0.375-4.974-0.787-7.423c-0.182-1.082-1.385-1.835-2.41-1.835
				c-41.605,0-83.209,0-124.814,0c-3.225,0-3.225,5,0,5c41.605,0,83.209,0,124.814,0c-0.804-0.612-1.607-1.224-2.41-1.835
				c1.041,6.21,0.956,12.729,0.305,18.966c-0.561,5.369-2.071,10.681-4.666,15.416c-1.578,2.882-2.242,3.375-5.14,4.272
				c-12.507,3.876-25.394,6.688-38.124,9.711c-25.059,5.949-50.188,11.618-75.34,17.16c-0.034,0.008-0.069,0.016-0.104,0.022
				c1.055,0.804,2.109,1.607,3.164,2.411c0-22.875,0-45.749,0-68.624C1348.995-296.484,1343.995-296.484,1343.995-293.26z"/>
		</g>
	</g>
	<g>
		<path fill-rule="evenodd" clip-rule="evenodd" fill="#FDFDFE" d="M1486.561-314.468v30.609c0,0-0.94,15.039-22.56,15.039
			c-21.617,0-22.944-16.92-22.944-16.92v-46.55L1486.561-314.468z"/>
		<g>
			<path d="M1484.061-314.468c0,10.203,0,20.406,0,30.609c0,2.833-3.181,7.155-6.118,9.147c-7.894,5.355-21.823,4.837-29.094-1.372
				c-6.856-5.855-5.292-13.245-5.292-21.43c0-11.592,0-23.184,0-34.776c-1.055,0.804-2.11,1.607-3.165,2.411
				c15.168,5.94,30.336,11.881,45.504,17.821c3.007,1.177,4.297-3.659,1.33-4.821c-15.168-5.94-30.336-11.881-45.504-17.821
				c-1.542-0.604-3.165,0.915-3.165,2.411c0,12.44,0,24.881,0,37.321c0,8.963-0.142,16.53,7.415,22.983
				c11.432,9.762,36.072,7.804,42.023-7.477c1.158-2.974,1.065-5.671,1.065-8.812c0-7.495,0-14.99,0-22.484c0-1.237,0-2.474,0-3.711
				C1489.061-317.692,1484.061-317.692,1484.061-314.468z"/>
		</g>
	</g>
	<g>
		<path fill-rule="evenodd" clip-rule="evenodd" fill="#FDFDFE" d="M1319.233-329.397v142.433c0,0,27.262,0,27.262-25.312
			c0-15.534,0-75.271,0-89.37C1346.495-332.956,1319.233-329.397,1319.233-329.397z"/>
		<g>
			<path d="M1316.733-329.397c0,46.895,0,93.789,0,140.684c0,0.583,0,1.166,0,1.749c0,1.357,1.137,2.508,2.5,2.5
				c10.797-0.061,22.194-5.351,27.123-15.268c3.34-6.721,2.639-14.495,2.639-21.771c0-9.108,0-18.218,0-27.327
				c0-17.27,0-34.539,0-51.809c0-14.983-6.66-28.68-22.6-31.015c-2.345-0.343-4.798-0.537-7.162-0.243c-3.156,0.393-3.194,5.397,0,5
				c10.451-1.3,20.09,4.431,23.341,14.52c2.231,6.926,1.421,14.869,1.421,22.073c0,9.282,0,18.564,0,27.848
				c0,16.727,0,33.454,0,50.181c0,13.936-11.447,22.737-24.762,22.812c0.834,0.833,1.666,1.667,2.5,2.5c0-46.895,0-93.789,0-140.684
				c0-0.583,0-1.166,0-1.749C1321.733-332.622,1316.733-332.622,1316.733-329.397z"/>
		</g>
	</g>
</g>
<g>
	<g>
		<path fill-rule="evenodd" clip-rule="evenodd" fill="#FFFFFF" d="M-357.322,109.93c37.243-14.32,41.809,17.301,41.809,17.301
			l-1.487,15.581c0,0-5.721,27.446-41.636,14.143"/>
		<g>
			<path d="M-356.657,112.341c11.71-4.36,26.384-6.441,34.515,5.207c1.794,2.57,3.026,5.487,3.823,8.507
				c0.154,0.584,0.285,1.177,0.385,1.773c-0.186-1.111-0.144,0.078-0.189,0.558c-0.12,1.258-0.24,2.517-0.36,3.775
				c-0.71,7.441-0.087,10.958-4.211,17.129c-7.93,11.866-23.767,9.377-35.276,5.253c-3.043-1.09-4.342,3.742-1.33,4.821
				c13.396,4.799,30.089,6.394,39.831-6.073c5.146-6.586,5.219-13.089,5.986-21.131c0.676-7.077-0.971-12.883-5.479-18.684
				c-9.599-12.351-25.788-10.885-39.024-5.957C-360.98,108.634-359.686,113.468-356.657,112.341L-356.657,112.341z"/>
		</g>
	</g>
	<g>
		<path fill-rule="evenodd" clip-rule="evenodd" fill="#FFFFFF" d="M-380.737,214.452c18.764,0,20.609-22.067,20.609-22.067
			l4.996-106.793H-487.53v141.35"/>
		<g>
			<path d="M-380.737,216.952c25.83-0.693,23.415-31.092,24.256-49.069c1.261-26.955,2.521-53.909,3.783-80.864
				c0.021-0.476,0.044-0.952,0.066-1.427c0.063-1.362-1.186-2.5-2.5-2.5c-44.133,0-88.266,0-132.398,0c-1.363,0-2.5,1.137-2.5,2.5
				c0,46.612,0,93.223,0,139.834c0,0.506,0,1.011,0,1.516c0,3.225,5,3.225,5,0c0-46.612,0-93.223,0-139.835c0-0.505,0-1.01,0-1.515
				c-0.833,0.833-1.667,1.667-2.5,2.5c44.133,0,88.266,0,132.398,0c-0.833-0.833-1.667-1.667-2.5-2.5
				c-1.114,23.827-2.229,47.653-3.344,71.479c-0.524,11.207-1.049,22.415-1.573,33.622c-0.484,10.356-6.62,20.948-18.188,21.258
				C-383.955,212.038-383.964,217.039-380.737,216.952L-380.737,216.952z"/>
		</g>
	</g>
	<g>
		<path fill-rule="evenodd" clip-rule="evenodd" fill="#FFFFFF" d="M-403.22,214.452h-215.667c0,0,0.832,24.98,14.988,24.98
			c14.157,0,257.306,0,273.958,0s16.652-24.98,16.652-24.98h-67.449"/>
		<g>
			<path d="M-403.22,211.952c-48.359,0-96.72,0-145.079,0c-23.529,0-47.059,0-70.588,0c-1.324,0-2.552,1.138-2.5,2.5
				c0.407,10.811,4.279,26.947,17.488,27.48c5.825,0.234,11.71,0,17.538,0c28.108,0,56.216,0,84.324,0c56.309,0,112.617,0,168.927,0
				c6.466,0,12.308-1.157,16.374-6.771c4.2-5.799,5.912-13.615,5.947-20.709c0.007-1.363-1.143-2.5-2.5-2.5
				c-22.483,0-44.966,0-67.449,0c-3.225,0-3.225,5,0,5c22.483,0,44.966,0,67.449,0c-0.833-0.834-1.667-1.666-2.5-2.5
				c-0.023,4.885-1.011,10.006-3.026,14.454c-2.576,5.687-6.97,8.026-12.995,8.026c-7.561,0-15.121,0-22.681,0
				c-29.851,0-59.7,0-89.55,0c-53.05,0-106.1,0-159.148,0c-10.378,0-12.892-14.331-13.198-22.48c-0.833,0.834-1.667,1.666-2.5,2.5
				c48.359,0,96.72,0,145.079,0c23.529,0,47.059,0,70.588,0C-399.995,216.952-399.995,211.952-403.22,211.952L-403.22,211.952z"/>
		</g>
	</g>
	<g>
		<path fill-rule="evenodd" clip-rule="evenodd" fill="#FFFFFF" d="M-419.872,214.452h-189.854c0,0,24.148-54.125,94.926-54.125
			C-444.021,160.327-419.872,214.452-419.872,214.452z"/>
		<g>
			<path d="M-419.872,211.952c-49.755,0-99.51,0-149.264,0c-13.53,0-27.061,0-40.59,0c0.72,1.254,1.439,2.508,2.158,3.762
				c9.461-21.049,30.547-37.478,51.519-45.626c39.146-15.209,87.323-7.231,117.275,22.695c6.565,6.561,12.902,14.386,16.743,22.931
				c1.319,2.938,5.627,0.393,4.316-2.523c-9.065-20.171-28.795-36.442-48.439-45.401c-37.788-17.233-85.818-12.483-118.704,13.009
				c-10.784,8.36-21.354,19.771-27.026,32.393c-0.753,1.674,0.11,3.762,2.158,3.762c49.755,0,99.51,0,149.264,0
				c13.53,0,27.061,0,40.59,0C-416.647,216.952-416.647,211.952-419.872,211.952z"/>
		</g>
	</g>
	<g>
		<path fill-rule="evenodd" clip-rule="evenodd" fill="#FFFFFF" d="M-566.844,214.452l-26.542-37.657
			c0,0,24.127-27.109,81.499-27.501c57.373-0.394,74.942,25.604,74.942,25.604l-25.604,39.554H-566.844z"/>
		<g>
			<path d="M-564.685,213.19c-8.848-12.553-17.695-25.105-26.543-37.657c-0.13,1.01-0.26,2.02-0.391,3.029
				c4.856-5.412,11.585-9.404,17.913-12.786c18.337-9.798,39.438-13.518,60.036-13.962c20.112-0.434,41.246,2.371,59.139,12.089
				c5.384,2.924,12.517,7.999,15.428,12.256c0-0.841,0-1.682,0-2.523c-8.535,13.185-17.07,26.37-25.605,39.554
				c0.72-0.412,1.439-0.826,2.159-1.238c-34.765,0-69.53,0-104.295,0c-3.225,0-3.225,5,0,5c24.345,0,48.69,0,73.035,0
				c10.219,0,20.438,0,30.656,0c2.824,0,4.006-3.16,5.356-5.246c4.031-6.228,8.063-12.456,12.095-18.685
				c3.639-5.621,7.277-11.241,10.915-16.862c0.455-0.702,0.479-1.824,0-2.523c-3.986-5.832-10.482-10.203-16.49-13.643
				c-18.178-10.408-39.999-13.242-60.61-13.2c-21.532,0.044-43.348,4.146-62.691,13.813c-7.261,3.629-15.078,8.295-20.575,14.421
				c-0.706,0.787-1.057,2.085-0.391,3.029c8.847,12.553,17.694,25.104,26.541,37.657
				C-567.161,218.327-562.823,215.833-564.685,213.19z"/>
		</g>
	</g>
	<g>
		<path fill-rule="evenodd" clip-rule="evenodd" fill="#FFFFFF" d="M-545.61,181.144l1.561,33.308h55.895
			c0,0,8.33-54.125,8.33-64.95c-35.809-23.316-69.947,0-69.947,0l1.352,10.825"/>
		<g>
			<path d="M-548.11,181.144c0.521,11.103,1.04,22.206,1.561,33.308c0.063,1.361,1.089,2.5,2.5,2.5c18.632,0,37.263,0,55.895,0
				c1.014,0,2.244-0.754,2.41-1.836c3.191-20.747,6.814-41.673,8.296-62.625c0.104-1.468,0.548-3.602-0.608-4.757
				c-3.479-3.48-9.653-5.516-14.188-7.264c-9.173-3.536-19.291-4.43-29.011-3.399c-10.203,1.082-21.19,4.469-29.777,10.272
				c-0.672,0.454-1.349,1.275-1.238,2.159c0.45,3.608,0.901,7.217,1.352,10.825c0.395,3.156,5.398,3.194,5,0
				c-0.45-3.608-0.901-7.217-1.352-10.825c-0.413,0.72-0.825,1.439-1.238,2.159c20.131-13.604,47.287-12.721,67.424,0
				c-0.413-0.72-0.825-1.439-1.238-2.159c-0.106,12.115-2.477,24.442-4.151,36.407c-1.301,9.301-2.662,18.596-4.089,27.879
				c0.803-0.612,1.606-1.225,2.41-1.836c-18.632,0-37.263,0-55.895,0c0.833,0.834,1.667,1.666,2.5,2.5
				c-0.521-11.103-1.04-22.206-1.561-33.308C-543.261,177.934-548.262,177.919-548.11,181.144L-548.11,181.144z"/>
		</g>
	</g>
	<g>
		<g>
			<path d="M-397.884,11.886c-3.045,4.715-6.7,10.54-6.842,16.305c-0.076,3.102,2.718,6.865,3.764,9.665
				c2.239,5.992,3.04,12.542-0.045,18.371c-1.507,2.848,2.81,5.374,4.318,2.523c4.691-8.865,2.442-18.328-1.43-27.043
				c-1.828-4.114-1.472-5.963,0.528-10.172c1.167-2.457,2.548-4.84,4.022-7.125C-391.813,11.691-396.143,9.188-397.884,11.886
				L-397.884,11.886z"/>
		</g>
	</g>
	<g>
		<g>
			<path d="M-449.347,17.479c-2.61,11.607,1.188,24.394,10.635,31.785c2.508,1.962,6.073-1.55,3.535-3.535
				c-8.041-6.292-11.595-16.932-9.348-26.92C-443.818,15.667-448.639,14.333-449.347,17.479L-449.347,17.479z"/>
		</g>
	</g>
	<g>
		<g>
			<path d="M-422.03,7.514c-3.828,5.772-11.77,15.591-6.903,22.473c3.249,4.595,8.231,7.782,11.001,12.741
				c1.465,2.623-1.615,7.061-2.862,9.254c-2.176,3.827-5.069,7.621-8.666,10.216c-2.589,1.868-0.097,6.208,2.523,4.317
				c5.735-4.139,10.071-10.331,12.855-16.778c2.3-5.326,1.405-8.831-2.127-13.243c-2.83-3.534-10.592-8.122-8.911-13.103
				c1.593-4.723,4.664-9.221,7.406-13.355C-415.926,7.342-420.258,4.841-422.03,7.514L-422.03,7.514z"/>
		</g>
	</g>
</g>
<g>
	<g>
		<path fill-rule="evenodd" clip-rule="evenodd" fill="#FFFFFF" d="M1114.447,412.495c0,0,353.363,0,360.391,0
			c6.658,10.123,4.913,16.641,0,22.772c-9.9,0-360.391,0-360.391,0S1104.545,423.384,1114.447,412.495z"/>
		<g>
			<path d="M1114.447,414.995c37.668,0,75.335,0,113.002,0c63.152,0,126.305,0,189.457,0c19.311,0,38.621,0,57.932,0
				c-0.72-0.413-1.439-0.826-2.158-1.238c4.516,7.214,5.297,13.372,0,20.249c0.719-0.413,1.438-0.826,2.158-1.238
				c-40.342,0-80.684,0-121.024,0c-62.843,0-125.687,0-188.53,0c-13.377,0-26.753,0-40.129,0c-3.123,0-6.245,0-9.367,0
				c-0.445,0-0.891,0-1.336,0c1.69,0,2.238,1.464,1.135-0.192c-0.877-1.316-1.554-2.744-2.107-4.221
				c-1.898-5.061-0.666-10.003,2.736-14.091c2.048-2.458-1.47-6.016-3.535-3.535c-6.274,7.536-6.482,16.756-1.078,24.871
				c1.073,1.612,2.117,2.169,3.922,2.169c4.852,0,9.703,0,14.557,0c22.746,0,45.492,0,68.239,0c64.422,0,128.844,0,193.266,0
				c22.681,0,45.36,0,68.042,0c4.802,0,9.604,0,14.407,0c5.213,0,7.421-8.863,7.665-12.972c0.251-4.222-2.395-14.8-7.622-14.8
				c-42.268,0-84.534,0-126.802,0c-62.021,0-124.041,0-186.061,0c-15.59,0-31.178,0-46.768,0
				C1111.224,409.995,1111.224,414.995,1114.447,414.995z"/>
		</g>
	</g>
	<g>
		<rect x="1202.563" y="404.821" fill-rule="evenodd" clip-rule="evenodd" fill="#FFFFFF" width="189.355" height="39.355"/>
		<g>
			<path d="M1202.563,407.321c49.624,0,99.248,0,148.873,0c13.494,0,26.988,0,40.482,0c-0.834-0.833-1.666-1.667-2.5-2.5
				c0,13.118,0,26.237,0,39.355c0.834-0.833,1.666-1.667,2.5-2.5c-49.624,0-99.248,0-148.873,0c-13.494,0-26.988,0-40.482,0
				c0.834,0.833,1.666,1.667,2.5,2.5c0-13.118,0-26.237,0-39.355c0-3.224-5-3.224-5,0c0,13.118,0,26.237,0,39.355
				c0,1.363,1.137,2.5,2.5,2.5c49.624,0,99.248,0,148.873,0c13.494,0,26.988,0,40.482,0c1.363,0,2.5-1.137,2.5-2.5
				c0-13.118,0-26.237,0-39.355c0-1.363-1.137-2.5-2.5-2.5c-49.624,0-99.248,0-148.873,0c-13.494,0-26.988,0-40.482,0
				C1199.338,402.321,1199.338,407.321,1202.563,407.321z"/>
		</g>
	</g>
	<g>
		<path fill-rule="evenodd" clip-rule="evenodd" fill="#FFFFFF" d="M1413.452,357.051v-25.001c0,0-1.485-15.594-18.192-15.594
			s-18.193,15.594-18.193,15.594v183.414c0,0,1.481,16.336,19.307,16.336c17.822,0,17.079-16.336,17.079-16.336V388.733"/>
		<g>
			<path d="M1415.952,357.051c0-6.075,0-12.15,0-18.225c0-3.853,0.244-7.403-0.956-11.094c-5.161-15.875-27.643-18.574-37.041-5.075
				c-3.414,4.903-3.389,9.846-3.389,15.422c0,10.422,0,20.844,0,31.266c0,31.662,0,63.323,0,94.984c0,12.516,0,25.031,0,37.547
				c0,4.734-0.57,9.852,0.127,14.556c2.242,15.138,19.852,22.426,32.93,15.096c7.092-3.975,8.329-11.921,8.329-19.23
				c0-27.393,0-54.786,0-82.179c0-13.795,0-27.59,0-41.386c0-3.224-5-3.224-5,0c0,22.613,0,45.227,0,67.84
				c0,14.625,0,29.251,0,43.877c0,5.616,0.672,11.688-0.129,17.282c-1.368,9.55-10.239,12.774-19.013,11.124
				c-6.777-1.275-11.174-6.99-12.263-13.527c-0.511-3.064,0.019-9.969,0.019-14.012c0-28.84,0-57.68,0-86.521
				c0-25.7,0-51.399,0-77.099c0-6.35-0.053-11.465,6.041-15.993c7.982-5.93,19.984-2.546,24.094,6.117
				c1.832,3.861,1.251,6.364,1.251,11.003c0,6.075,0,12.15,0,18.225C1410.952,360.275,1415.952,360.275,1415.952,357.051
				L1415.952,357.051z"/>
		</g>
	</g>
	<g>
		<path fill-rule="evenodd" clip-rule="evenodd" fill="#FFFFFF" d="M1413.459,388.733v106.866c0,0,1.479,16.336,19.303,16.336
			c17.823,0,17.082-16.336,17.082-16.336V351.913c0,0-1.485-15.594-18.192-15.594c-16.708,0-18.192,15.594-18.192,15.594v5.138"/>
		<g>
			<path d="M1410.959,388.733c0,24.156,0,48.312,0,72.468c0,10.99,0,21.979,0,32.969c0,9.907,7.566,18.074,17.117,19.87
				c12.687,2.387,24.268-5.272,24.268-18.524c0-7.208,0-14.417,0-21.625c0-30.813,0-61.626,0-92.439c0-8.07,0-16.141,0-24.21
				c0-3.651,0.088-6.729-1.166-10.236c-4.382-12.249-18.775-16.232-30.023-10.774c-8.206,3.982-10.195,12.651-10.195,20.819
				c0,3.224,5,3.224,5,0c0-5-0.105-7.97,3.169-12.673c5.718-8.214,20.069-7.15,25.511,0.666c3.639,5.227,2.705,9.941,2.705,16.429
				c0,29.242,0,58.484,0,87.726c0,12.625,0,25.25,0,37.875c0,5.483,0.736,11.458-2.059,16.424
				c-4.918,8.739-19.314,7.247-25.365,0.793c-2.183-2.329-3.961-6.821-3.961-9.125c0-9.786,0-19.572,0-29.359
				c0-25.691,0-51.382,0-77.073C1415.959,385.509,1410.959,385.509,1410.959,388.733L1410.959,388.733z"/>
		</g>
	</g>
	<g>
		<path fill-rule="evenodd" clip-rule="evenodd" fill="#FFFFFF" d="M1176.826,488.233v25.001c0,0,1.484,15.594,18.192,15.594
			s18.192-15.594,18.192-15.594V329.822c0,0-1.482-16.337-19.301-16.337c-17.826,0-17.084,16.337-17.084,16.337V456.55"/>
		<g>
			<path d="M1174.326,488.233c0,6.075,0,12.15,0,18.225c0,3.852-0.244,7.403,0.956,11.094c5.159,15.875,27.644,18.574,37.041,5.075
				c3.413-4.903,3.388-9.847,3.388-15.422c0-10.422,0-20.844,0-31.266c0-31.661,0-63.323,0-94.984c0-12.516,0-25.031,0-37.547
				c0-4.734,0.57-9.851-0.126-14.555c-2.243-15.138-19.848-22.426-32.927-15.097c-7.093,3.974-8.332,11.921-8.332,19.23
				c0,27.393,0,54.786,0,82.178c0,13.795,0,27.59,0,41.385c0,3.224,5,3.224,5,0c0-22.613,0-45.226,0-67.839
				c0-14.625,0-29.251,0-43.877c0-5.616-0.672-11.688,0.13-17.282c1.368-9.55,10.241-12.775,19.015-11.124
				c6.777,1.275,11.17,6.992,12.26,13.528c0.51,3.064-0.02,9.969-0.02,14.011c0,28.84,0,57.681,0,86.521c0,25.7,0,51.399,0,77.099
				c0,6.35,0.054,11.465-6.041,15.993c-7.98,5.93-19.984,2.546-24.093-6.117c-1.831-3.861-1.251-6.364-1.251-11.003
				c0-6.075,0-12.15,0-18.225C1179.326,485.009,1174.326,485.009,1174.326,488.233L1174.326,488.233z"/>
		</g>
	</g>
	<g>
		<path fill-rule="evenodd" clip-rule="evenodd" fill="#FFFFFF" d="M1176.822,456.55V349.685c0,0-1.483-16.336-19.306-16.336
			c-17.823,0-17.077,16.336-17.077,16.336v143.687c0,0,1.483,15.594,18.191,15.594s18.191-15.594,18.191-15.594v-5.138"/>
		<g>
			<path d="M1179.322,456.55c0-24.156,0-48.312,0-72.467c0-10.99,0-21.979,0-32.969c0-9.907-7.571-18.074-17.12-19.871
				c-12.69-2.387-24.263,5.273-24.263,18.525c0,7.208,0,14.417,0,21.625c0,30.813,0,61.626,0,92.439c0,8.07,0,16.141,0,24.21
				c0,3.651-0.088,6.729,1.166,10.236c4.38,12.25,18.775,16.232,30.021,10.774c8.207-3.982,10.195-12.651,10.195-20.819
				c0-3.224-5-3.224-5,0c0,5,0.105,7.97-3.168,12.673c-5.719,8.214-20.069,7.15-25.51-0.666c-3.639-5.226-2.705-9.942-2.705-16.429
				c0-29.242,0-58.484,0-87.726c0-12.625,0-25.25,0-37.875c0-5.481-0.737-11.459,2.055-16.424
				c4.918-8.742,19.314-7.246,25.364-0.793c2.183,2.329,3.964,6.821,3.964,9.125c0,9.786,0,19.572,0,29.358
				c0,25.691,0,51.381,0,77.072C1174.322,459.774,1179.322,459.774,1179.322,456.55L1179.322,456.55z"/>
		</g>
	</g>
</g>
<g>
	<g>
		<path fill-rule="evenodd" clip-rule="evenodd" fill="#FFFFFF" d="M-520.393-270.408c-6.151,3.915-13.452,6.182-21.284,6.182
			c-21.926,0-39.698-17.772-39.698-39.696c0-21.925,17.772-39.697,39.698-39.697c21.923,0,39.695,17.772,39.695,39.697"/>
		<g>
			<path d="M-521.654-272.566c-15.21,9.265-34.205,7.059-46.781-5.516c-11.881-11.882-13.383-30.734-5.139-44.988
				c8.399-14.521,26.104-20.839,42-16.66c16.096,4.232,26.813,19.525,27.093,35.809c0.056,3.221,5.056,3.226,5,0
				c-0.318-18.501-11.967-34.35-29.489-40.249c-18.066-6.082-37.88,2.011-48.231,17.47c-10.622,15.861-7.951,37.2,4.345,51.207
				c13.452,15.324,36.689,17.622,53.727,7.244C-516.383-269.923-518.894-274.249-521.654-272.566L-521.654-272.566z"/>
		</g>
	</g>
	<g>
		<polygon fill-rule="evenodd" clip-rule="evenodd" fill="#FFFFFF" points="-540.52,-303.921 -391.654,-303.921 -466.087,-194.752 
					"/>
		<g>
			<path d="M-540.52-301.421c48.034,0,96.069,0,144.104,0c1.587,0,3.174,0,4.761,0c-0.72-1.254-1.439-2.508-2.158-3.762
				c-24.812,36.39-49.622,72.779-74.434,109.169c1.439,0,2.879,0,4.318,0c-24.812-36.39-49.623-72.779-74.434-109.169
				c-1.805-2.646-6.139-0.148-4.317,2.523c24.812,36.39,49.622,72.779,74.433,109.169c1.095,1.605,3.224,1.605,4.318,0
				c24.811-36.39,49.621-72.779,74.432-109.169c1.092-1.601-0.363-3.762-2.158-3.762c-48.035,0-96.07,0-144.105,0
				c-1.586,0-3.174,0-4.76,0C-543.744-306.421-543.744-301.421-540.52-301.421z"/>
		</g>
	</g>
	<g>
		<g>
			<path d="M-502.196-253.276c2.592-2.23,6.208-3.276,9.47-3.962c7.605-1.598,13.714,1.096,20.595,3.657
				c7.391,2.751,18.534,0.588,24.52-4.656c2.43-2.128-1.121-5.65-3.535-3.535c-2.486,2.178-6.133,3.093-9.267,3.751
				c-7.78,1.635-12.952-2.277-20.073-4.069c-8.003-2.013-18.858-0.215-25.244,5.279
				C-508.18-254.705-504.627-251.185-502.196-253.276L-502.196-253.276z"/>
		</g>
	</g>
	<g>
		<g>
			<path d="M-408.156-282.971c-2.148,1.882-5.229,2.775-7.92,3.468c-6.765,1.74-11.495-0.221-17.633-2.579
				c-4.77-1.833-10.45-2.33-15.491-1.397c-4.43,0.819-8.09,3.367-12.401,4.468c-5.466,1.396-10.638-1.705-15.577-3.499
				c-4.771-1.732-10.205-1.633-14.971,0c-2.072,0.71-3.975,1.858-5.995,2.692c-2.922,1.206-6.01,1.118-9.102,0.966
				c-4.832-0.236-9.727-1.133-14.413-2.337c-3.125-0.803-4.45,4.019-1.329,4.821c9.246,2.376,19.828,4.354,28.785,0.241
				c6.406-2.942,11.914-3.252,18.505-0.468c5.085,2.148,9.887,3.415,15.426,2.404c4.598-0.838,8.296-3.964,13.035-4.534
				c6.783-0.815,11.984,1.669,18.097,3.945c7.391,2.751,18.533,0.588,24.52-4.656C-402.191-281.564-405.742-285.086-408.156-282.971
				L-408.156-282.971z"/>
		</g>
	</g>
	<g>
		<g>
			<path d="M-435.052-255.972c2.646,0.698,6.789,1.529,8.564,3.689c2.048,2.494,5.564-1.065,3.535-3.535
				c-1.439-1.753-3.902-2.627-5.945-3.421c-1.571-0.611-3.194-1.125-4.824-1.555C-436.844-261.617-438.166-256.794-435.052-255.972
				L-435.052-255.972z"/>
		</g>
	</g>
	<g>
		<polygon fill-rule="evenodd" clip-rule="evenodd" fill="#FFFFFF" points="-466.087,-113.372 -491.561,-96.167 -439.289,-96.167 		
			"/>
		<g>
			<path d="M-467.349-115.531c-8.491,5.735-16.982,11.47-25.474,17.205c-1.999,1.35-1.34,4.659,1.262,4.659
				c17.424,0,34.848,0,52.271,0c2.561,0,3.315-3.34,1.262-4.659c-8.933-5.735-17.865-11.47-26.798-17.205
				c-2.722-1.748-5.227,2.582-2.523,4.317c8.933,5.735,17.865,11.47,26.798,17.205c0.421-1.553,0.841-3.106,1.262-4.659
				c-17.424,0-34.848,0-52.271,0c0.421,1.553,0.841,3.106,1.262,4.659c8.491-5.735,16.982-11.47,25.474-17.205
				C-462.169-113.007-464.668-117.341-467.349-115.531z"/>
		</g>
	</g>
	<g>
		<g>
			<path d="M-468.587-194.752c0,27.127,0,54.253,0,81.38c0,3.224,5,3.224,5,0c0-27.127,0-54.253,0-81.38
				C-463.587-197.977-468.587-197.977-468.587-194.752L-468.587-194.752z"/>
		</g>
	</g>
	<g>
		<g>
			<path d="M-459.021-286.722c-2.952,22.719-5.921,45.436-8.903,68.151c-0.419,3.19,4.587,3.149,5,0
				c2.982-22.715,5.951-45.432,8.903-68.151C-453.607-289.913-458.612-289.873-459.021-286.722L-459.021-286.722z"/>
		</g>
	</g>
	<g>
		<g>
			<path d="M-395.625-346.119c-14.36,0-28.721,0-43.081,0c-4.615,0-9.581-0.541-12.39,4.189c-1.921,3.236-1.803,7.367-2.255,11.032
				c-0.958,7.771-1.967,15.535-2.968,23.299c-0.411,3.191,4.594,3.152,5,0c0.904-7.018,1.808-14.035,2.688-21.056
				c0.394-3.135,0.113-9.625,2.821-11.674c1.685-1.276,1.037-0.792,3.223-0.792c2.805,0,5.608,0,8.412,0c12.85,0,25.699,0,38.549,0
				C-392.4-341.119-392.4-346.119-395.625-346.119L-395.625-346.119z"/>
		</g>
	</g>
	<g>
		<g>
			<path d="M-544.177-330.386c0,3.97,0,7.939,0,11.909c0,3.225,5,3.225,5,0c0-3.97,0-7.939,0-11.909
				C-539.177-333.611-544.177-333.611-544.177-330.386L-544.177-330.386z"/>
		</g>
	</g>
	<g>
		<g>
			<path d="M-544.177-289.698c0,3.64,0,7.28,0,10.919c0,3.224,5,3.224,5,0c0-3.64,0-7.28,0-10.919
				C-539.177-292.922-544.177-292.922-544.177-289.698L-544.177-289.698z"/>
		</g>
	</g>
	<g>
		<g>
			<path d="M-525.082-324.875c-2.922,2.922-5.846,5.844-8.768,8.766c-2.282,2.281,1.254,5.817,3.535,3.535
				c2.923-2.922,5.846-5.844,8.768-8.766C-519.264-323.622-522.8-327.157-525.082-324.875L-525.082-324.875z"/>
		</g>
	</g>
	<g>
		<g>
			<path d="M-554.855-295.763c-2.26,2.259-4.521,4.519-6.781,6.779c-2.281,2.281,1.254,5.817,3.535,3.535
				c2.262-2.259,4.521-4.519,6.781-6.779C-549.037-294.509-552.572-298.045-554.855-295.763L-554.855-295.763z"/>
		</g>
	</g>
	<g>
		<g>
			<path d="M-567.977-301.421c3.833,0,7.666,0,11.498,0c3.225,0,3.225-5,0-5c-3.832,0-7.665,0-11.498,0
				C-571.2-306.421-571.2-301.421-567.977-301.421L-567.977-301.421z"/>
		</g>
	</g>
	<g>
		<g>
			<path d="M-561.637-321.34c2.867,2.867,5.734,5.733,8.602,8.6c2.282,2.282,5.818-1.254,3.535-3.535
				c-2.867-2.867-5.734-5.733-8.602-8.6C-560.383-327.157-563.918-323.622-561.637-321.34L-561.637-321.34z"/>
		</g>
	</g>
</g>
<g>
	<polygon fill="#FFFFFF" points="4575.287,938.3 4518.848,938.3 4521.398,846.466 4535.11,824.146 4568.91,822.231 	"/>
	<g>
		<rect x="4437.43" y="955.354" fill="#FFFFFF" width="225.231" height="77.104"/>
		<g>
			<path d="M4434.93,955.354c0,25.701,0,51.403,0,77.104c0,1.363,1.137,2.5,2.5,2.5c47.751,0,95.503,0,143.254,0
				c27.326,0,54.651,0,81.978,0c1.362,0,2.5-1.137,2.5-2.5c0-25.701,0-51.403,0-77.104c0-1.362-1.138-2.5-2.5-2.5
				c-47.751,0-95.503,0-143.254,0c-27.326,0-54.651,0-81.978,0c-3.225,0-3.225,5,0,5c47.751,0,95.503,0,143.254,0
				c27.326,0,54.651,0,81.978,0c-0.833-0.833-1.667-1.667-2.5-2.5c0,25.701,0,51.403,0,77.104c0.833-0.833,1.667-1.667,2.5-2.5
				c-47.751,0-95.503,0-143.254,0c-27.326,0-54.651,0-81.978,0c0.833,0.833,1.667,1.667,2.5,2.5c0-25.701,0-51.403,0-77.104
				C4439.93,952.13,4434.93,952.13,4434.93,955.354z"/>
		</g>
	</g>
	<g>
		<path fill="#FFFFFF" d="M4397.861,940.137h309.441c0,0,0.633,30.437-21.688,30.437c-22.321,0-244.252,0-266.892,0
			S4397.861,940.137,4397.861,940.137z"/>
		<g>
			<path d="M4397.861,942.637c40.83,0,81.66,0,122.49,0c56.834,0,113.668,0,170.502,0c5.483,0,10.967,0,16.449,0
				c-0.833-0.833-1.667-1.667-2.5-2.5c0.192,11.677-4.423,26.905-18.034,27.908c-7.485,0.553-15.202,0.028-22.702,0.028
				c-30.856,0-61.713,0-92.57,0c-34.666,0-69.333,0-103.999,0c-12.011,0-24.021,0-36.03,0c-9.47,0-20.549,1.729-26.529-7.374
				c-3.792-5.772-4.944-13.749-4.576-20.563c0.174-3.224-4.827-3.207-5,0c-0.576,10.67,2.43,23.191,11.533,29.632
				c6.979,4.938,18.036,3.305,26.21,3.305c28.993,0,57.986,0,86.979,0c35.339,0,70.677,0,106.016,0c13.297,0,26.593,0,39.89,0
				c7.593,0,16.11,1.012,23.628-0.333c14.813-2.651,20.406-19.217,20.186-32.604c-0.022-1.362-1.12-2.5-2.5-2.5
				c-40.83,0-81.66,0-122.49,0c-56.834,0-113.668,0-170.502,0c-5.483,0-10.967,0-16.449,0
				C4394.637,937.637,4394.637,942.637,4397.861,942.637z"/>
		</g>
	</g>
	<g>
		<path fill="#FFFFFF" d="M4520.124,845.191c0,0-16.9,19.132-52.257,24.94c-17.021,2.798-30.438,70.005-30.438,70.005h112.614"/>
		<g>
			<path d="M4518.356,843.424c-6.385,7.157-15.469,12.247-24.038,16.225c-4.562,2.118-9.334,3.756-14.154,5.173
				c-4.704,1.384-9.825,1.711-14.425,3.3c-4.341,1.499-7.394,5.561-9.819,9.238c-7.406,11.229-11.355,25.085-14.982,37.898
				c-2.261,7.987-4.287,16.073-5.918,24.214c-0.316,1.577,0.698,3.165,2.41,3.165c37.538,0,75.076,0,112.614,0c3.225,0,3.225-5,0-5
				c-37.538,0-75.076,0-112.614,0c0.804,1.055,1.607,2.109,2.41,3.165c4.053-20.22,9.11-42.507,19.961-60.231
				c2.615-4.271,5.425-7.46,10.455-8.324c10.018-1.722,19.737-4.976,28.891-9.367c8.097-3.886,16.688-9.13,22.745-15.92
				C4524.03,844.562,4520.507,841.013,4518.356,843.424L4518.356,843.424z"/>
		</g>
	</g>
	<g>
		<path fill="#FFFFFF" d="M4570.929,830.835c0,0,16.156,31.94,61.296,39.297c17.024,2.775,30.437,70.005,30.437,70.005h-112.617"/>
		<g>
			<path d="M4568.77,832.097c3.872,7.575,10.305,14.199,16.683,19.664c6.751,5.784,14.411,10.389,22.545,13.939
				c5.079,2.218,10.347,3.911,15.718,5.258c3.661,0.917,7.888,0.843,11.072,3.031c4.78,3.285,7.625,9.973,9.956,15.032
				c3.433,7.452,5.978,15.33,8.324,23.179c2.813,9.405,5.255,18.973,7.183,28.602c0.804-1.056,1.607-2.11,2.411-3.165
				c-37.539,0-75.078,0-112.617,0c-3.225,0-3.225,5,0,5c37.539,0,75.078,0,112.617,0c1.712,0,2.727-1.588,2.411-3.165
				c-1.93-9.633-4.402-19.182-7.184-28.601c-3.862-13.08-8.254-28.521-17.758-38.762c-5.042-5.434-12.771-5.243-19.498-7.15
				c-10.113-2.865-19.592-7.65-28.049-13.866c-7.562-5.559-15.166-13.046-19.496-21.52
				C4571.619,826.701,4567.306,829.232,4568.77,832.097L4568.77,832.097z"/>
		</g>
	</g>
	<g>
		<path fill="#FFFFFF" d="M4591.396,771.46c0,27.173-13.187,67.976-42.606,67.976c-25.366,0-37.542-37.758-37.542-64.934
			c0-20.375,7.856-38.045,38.798-38.045C4570.775,736.457,4591.396,741.022,4591.396,771.46z"/>
		<g>
			<path d="M4588.896,771.46c-0.124,19.566-5.443,42.154-19.54,56.506c-6.781,6.903-16.656,10.582-26.221,8.234
				c-9.628-2.363-15.982-11.423-20.198-19.746c-5.008-9.889-7.559-21.183-8.697-32.148c-0.951-9.164-0.883-18.723,2.359-27.451
				c7.385-19.878,34.751-20.44,52.056-15.864C4583.25,744.851,4588.723,757.27,4588.896,771.46c0.039,3.222,5.039,3.226,5,0
				c-0.12-9.837-2.144-19.574-9.036-26.953c-5.666-6.065-14.129-8.654-22.103-9.771c-17.677-2.475-39.521-0.602-49.107,16.65
				c-8.875,15.97-5.035,38.68,0.03,55.188c5.143,16.759,16.5,35.701,36.263,35.34c32.478-0.593,43.79-44.767,43.953-70.454
				C4593.917,768.234,4588.917,768.236,4588.896,771.46z"/>
		</g>
	</g>
	<g>
		<g>
			<path d="M4478.402,902.337c0,12.175,0,24.35,0,36.524c0,3.225,5,3.225,5,0c0-12.175,0-24.35,0-36.524
				C4483.402,899.112,4478.402,899.112,4478.402,902.337L4478.402,902.337z"/>
		</g>
	</g>
	<g>
		<g>
			<path d="M4619.023,903.771c0,10.821,0,21.643,0,32.464c0,3.225,5,3.225,5,0c0-10.821,0-21.643,0-32.464
				C4624.023,900.546,4619.023,900.546,4619.023,903.771L4619.023,903.771z"/>
		</g>
	</g>
	<g>
		<g>
			<path d="M4547.544,892.453c0,15.895,0,31.789,0,47.684c0,3.225,5,3.225,5,0c0-15.895,0-31.789,0-47.684
				C4552.544,889.229,4547.544,889.229,4547.544,892.453L4547.544,892.453z"/>
		</g>
	</g>
	<g>
		<rect x="4542.402" y="862.775" fill="#FFFFFF" width="15.286" height="12.937"/>
		<g>
			<path d="M4557.688,873.212c-5.096,0-10.19,0-15.286,0c0.833,0.833,1.667,1.667,2.5,2.5c0-4.313,0-8.624,0-12.937
				c-0.833,0.833-1.667,1.667-2.5,2.5c5.096,0,10.19,0,15.286,0c-0.833-0.833-1.667-1.667-2.5-2.5c0,4.313,0,8.624,0,12.937
				c0,3.225,5,3.225,5,0c0-4.313,0-8.624,0-12.937c0-1.363-1.138-2.5-2.5-2.5c-5.096,0-10.19,0-15.286,0c-1.363,0-2.5,1.137-2.5,2.5
				c0,4.313,0,8.624,0,12.937c0,1.362,1.137,2.5,2.5,2.5c5.096,0,10.19,0,15.286,0
				C4560.913,878.212,4560.913,873.212,4557.688,873.212z"/>
		</g>
	</g>
</g>
<g>
	<g>
		<path fill="#FFFFFF" d="M445.332,629.165c0,73.161-59.31,132.472-132.471,132.472S180.39,702.326,180.39,629.165
			c0-73.163,59.309-132.471,132.471-132.471c21.863,0,42.489,5.296,60.664,14.675c9.074,4.682,17.537,10.381,25.241,16.949
			c9.252,7.891,17.406,17.033,24.201,27.164C437.092,576.55,445.332,601.894,445.332,629.165z"/>
	</g>
	<g>
		<g>
			<path d="M183.671,643.664c-5.57-53.322,21.99-105.06,69.415-129.923c41.211-21.607,91.623-18.492,130.597,6.432
				c38.708,24.753,60.952,69.7,59.029,115.323c-1.975,46.864-30.719,89.46-72.424,110.283
				c-56.491,28.206-126.944,9.741-163.483-41.416c-1.856-2.599-6.196-0.106-4.317,2.523c28.155,39.419,75.604,61.316,123.855,56.578
				c44-4.321,83.465-30.808,104.839-69.358c21.535-38.843,21.766-86.521,2.021-126.066c-20.081-40.219-60.365-67.469-104.718-72.956
				c-36.737-4.545-74.268,7.31-102.603,30.842c-34.239,28.436-51.813,73.671-47.21,117.738
				C179.003,646.837,184.006,646.869,183.671,643.664L183.671,643.664z"/>
		</g>
	</g>
	<text transform="matrix(1 0 0 1 238.7598 676.9512)" font-family="'UVNHongHaHep'" font-size="147.365">24</text>
</g>
<g>
	<g>
		<g>
			<path fill="#020202" d="M1020.656,178.211c9.262-6.717,20.109-3.688,26.807,4.574c4.84,5.971,8.426,12.604,15.629,16.104
				c7.893,3.838,17.982,2.844,25.482-1.389c6.947-3.92,11.152-11.057,16.434-16.76c6.072-6.559,14.596-8.084,22.205-3.037
				c6.904,4.578,11.137,12.436,17.631,17.574c6.85,5.422,15.828,7.256,24.258,4.891c7.441-2.09,11.965-8.58,16.037-14.65
				c3.951-5.893,8.111-10.758,15.709-10.951c3.219-0.082,3.227-5.082,0-5c-7.977,0.201-13.396,4.236-17.984,10.469
				c-4.863,6.613-8.441,13.875-17.135,15.826c-20.021,4.49-26.137-20.516-42.453-25.539c-18.363-5.654-24.705,15.1-37.225,22.861
				c-8.391,5.201-19.857,3.752-26.705-3.154c-5.293-5.34-8.361-12.26-14.58-16.76c-7.619-5.518-19.242-4.736-26.633,0.623
				C1015.551,175.768,1018.041,180.108,1020.656,178.211L1020.656,178.211z"/>
		</g>
	</g>
	<g>
		<g>
			<path fill="#020202" d="M943.629,174.567c13.174,0.256,19.369,9.377,27.797,17.9c8.08,8.174,19.801,11.318,30.508,6.256
				c2.912-1.377,0.373-5.686-2.523-4.316c-12.395,5.857-21.975-2.506-29.678-11.152c-7.166-8.045-14.986-13.471-26.104-13.688
				C940.402,169.504,940.408,174.504,943.629,174.567L943.629,174.567z"/>
		</g>
	</g>
	<g>
		<g>
			<path fill="#020202" d="M1109.127,221.979c10.883-6.656,19.596,0.963,26.535,8.896c6.096,6.969,12.732,13.811,22.43,14.934
				c9.654,1.117,17.639-2.523,23.408-10.225c5.352-7.143,9.188-15.908,19.348-16.166c3.219-0.082,3.227-5.082,0-5
				c-9.107,0.232-14.643,5.525-19.521,12.678c-6.227,9.129-12.664,15.975-24.797,13.381c-10.094-2.158-15.764-12.172-22.662-18.863
				c-7.471-7.244-18.057-9.582-27.264-3.951C1103.859,219.342,1106.369,223.667,1109.127,221.979L1109.127,221.979z"/>
		</g>
	</g>
	<g>
		<g>
			<path fill="#020202" d="M943.629,219.418c8.604,0.168,14.838,3.947,20.602,10.057c4.775,5.063,8.986,10.609,15.27,13.916
				c6.301,3.318,14.9,3.721,21.379,0.686c6.117-2.867,9.809-8.316,13.529-13.707c4.416-6.4,9.313-10.768,17.457-10.951
				c8.314-0.188,13.406,5.09,17.912,11.34c3.912,5.428,7.9,10.678,14.234,13.375c8.174,3.479,18.109,2.215,25.543-2.395
				c2.734-1.695,0.225-6.021-2.523-4.318c-8.059,4.998-19.064,5.156-26.379-1.264c-4.775-4.191-7.662-10.141-12-14.748
				c-9.967-10.59-26.709-8.516-35.482,2.258c-4.047,4.971-6.881,11.094-12.326,14.764c-6.637,4.473-15.832,2.979-22.082-1.334
				c-5.617-3.875-9.48-10.01-14.469-14.605c-5.787-5.33-12.842-7.92-20.664-8.072C940.402,214.356,940.408,219.356,943.629,219.418
				L943.629,219.418z"/>
		</g>
	</g>
	<g>
		<g>
			<path fill="#020202" d="M944.303,54.597c11.654,0,23.307,0,34.961,0c3.225,0,3.225-5,0-5c-11.654,0-23.307,0-34.961,0
				C941.078,49.597,941.078,54.597,944.303,54.597L944.303,54.597z"/>
		</g>
	</g>
	<g>
		<g>
			<path fill="#020202" d="M1201.301,49.597c-22.477,0-44.951,0-67.428,0c-3.223,0-3.223,5,0,5c22.477,0,44.951,0,67.428,0
				C1204.525,54.597,1204.525,49.597,1201.301,49.597L1201.301,49.597z"/>
		</g>
	</g>
	<g>
		<g>
			<path fill="#020202" d="M1013.553,65.52c39.957,0,79.912,0,119.869,0c3.223,0,3.223-5,0-5c-39.957,0-79.912,0-119.869,0
				C1010.328,60.52,1010.328,65.52,1013.553,65.52L1013.553,65.52z"/>
		</g>
	</g>
	<g>
		<g>
			<path fill="#020202" d="M1013.553,99.648c39.854,0,79.705,0,119.559,0c3.223,0,3.223-5,0-5c-39.854,0-79.705,0-119.559,0
				C1010.328,94.648,1010.328,99.648,1013.553,99.648L1013.553,99.648z"/>
		</g>
	</g>
	<g>
		<g>
			<path fill="#020202" d="M1013.553,132.114c39.957,0,79.912,0,119.869,0c3.223,0,3.223-5,0-5c-39.957,0-79.912,0-119.869,0
				C1010.328,127.114,1010.328,132.114,1013.553,132.114L1013.553,132.114z"/>
		</g>
	</g>
	<g>
		<g>
			<path fill="#020202" d="M1135.922,150.424c0-45.427,0-90.853,0-136.279c0,0.259-0.082,0.319,0.541-0.974
				c1.225-2.536,2.816-4.879,4.654-7.007c6.445-7.461,16.33-9.767,25.578-6.6c6.297,2.156,11.145,7.774,13.996,13.601
				c0.369,0.756,0.176,0.698,0.176,0.012c0,1.271,0,2.542,0,3.813c0,2.579,0,5.159,0,7.738c0,3.225,5,3.225,5,0
				c0-4.266,1.096-9.772-0.699-13.745c-2.748-6.087-7.611-11.262-13.385-14.554c-15.383-8.773-33.457,0.315-40.182,15.389
				c-0.779,1.746-0.68,3.175-0.68,5.06c0,4.176,0,8.352,0,12.527c0,14.433,0,28.865,0,43.297c0,25.907,0,51.814,0,77.722
				C1130.922,153.649,1135.922,153.649,1135.922,150.424L1135.922,150.424z"/>
		</g>
	</g>
	<g>
		<g>
			<path fill="#020202" d="M1016.053,150.424c0-45.427,0-90.853,0-136.279c0,0.259-0.082,0.319,0.543-0.974
				c1.225-2.536,2.814-4.879,4.652-7.007c6.445-7.462,16.328-9.767,25.578-6.6c6.297,2.156,11.145,7.774,13.996,13.601
				c0.369,0.756,0.176,0.698,0.176,0.012c0,1.271,0,2.542,0,3.813c0,2.579,0,5.159,0,7.738c0,3.225,5,3.225,5,0
				c0-4.266,1.096-9.772-0.699-13.745c-2.748-6.087-7.611-11.262-13.385-14.554c-15.383-8.773-33.457,0.314-40.182,15.389
				c-0.777,1.746-0.68,3.175-0.68,5.06c0,4.176,0,8.352,0,12.527c0,14.433,0,28.865,0,43.297c0,25.907,0,51.814,0,77.722
				C1011.053,153.649,1016.053,153.649,1016.053,150.424L1016.053,150.424z"/>
		</g>
	</g>
</g>
<g>
	<g>
		<polygon fill="#FFFFFF" points="71.847,698.764 -113.749,698.764 -113.749,450.322 -113.749,444.623 -106.501,444.623 
			65.304,444.623 71.847,444.623 71.847,451.899 		"/>
		<g>
			<path d="M71.847,696.264c-49.794,0-99.588,0-149.382,0c-12.071,0-24.143,0-36.214,0c0.833,0.833,1.667,1.667,2.5,2.5
				c0-45.895,0-91.79,0-137.685c0-38.819,0-77.638,0-116.456c-0.833,0.833-1.667,1.667-2.5,2.5c49.587,0,99.173,0,148.761,0
				c12.277,0,24.557,0,36.835,0c-0.833-0.833-1.667-1.667-2.5-2.5c0,44.733,0,89.468,0,134.201c0,39.98,0,79.96,0,119.939
				c0,3.225,5,3.225,5,0c0-45.958,0-91.917,0-137.875c0-38.755,0-77.511,0-116.266c0-1.363-1.138-2.5-2.5-2.5
				c-49.612,0-99.224,0-148.835,0c-12.254,0-24.508,0-36.761,0c-1.362,0-2.5,1.137-2.5,2.5c0,44.805,0,89.61,0,134.415
				c0,39.908,0,79.817,0,119.726c0,1.363,1.138,2.5,2.5,2.5c49.794,0,99.588,0,149.382,0c12.071,0,24.143,0,36.214,0
				C75.071,701.264,75.071,696.264,71.847,696.264z"/>
		</g>
	</g>
	<g>
		<path fill="#FFFFFF" d="M-33.077,547.361c-14.305-5.263-25.311-19.644-25.311-35.775c0-20.676,16.764-37.436,37.436-37.436
			c20.675,0,37.437,16.76,37.437,37.436c0,14.914-8.723,27.793-21.347,33.812c-1.559,0.743-3.876,1.439-5.544,1.964"/>
		<g>
			<path d="M-32.412,544.95c-16.346-6.372-26.195-23.645-22.662-40.907c3.287-16.065,18.087-27.098,34.122-27.393
				c16.415-0.302,30.343,11.826,34.124,27.393c4.357,17.945-7.211,35.566-24.242,40.907c-3.066,0.962-1.756,5.789,1.328,4.822
				c18.814-5.9,31.557-24.449,28.231-44.383c-3.159-18.938-18.985-32.66-38.038-33.714c-19.055-1.053-35.943,12.904-40.348,31.038
				c-4.834,19.911,7.672,39.853,26.154,47.059C-30.733,550.944-29.443,546.108-32.412,544.95L-32.412,544.95z"/>
		</g>
	</g>
	<g>
		<path fill="#FFFFFF" d="M-33.077,566.213v13.077l9.997,7.441l-9.997,8.567l9.547,7.665l-9.547,7.143v8.436
			c0,0,9.125,11.601,12.125,11.601c3.001,0,10.546-10.019,10.546-10.019v-72.763"/>
		<g>
			<path d="M-35.577,566.213c0,4.203-1.026,9.687,0.089,13.742c0.494,1.793,3.631,3.341,4.974,4.341
				c2.058,1.531,4.115,3.063,6.173,4.595c-0.169-1.31-0.338-2.618-0.506-3.927c-3.332,2.855-6.665,5.712-9.997,8.567
				c-0.956,0.819-1.009,2.727,0,3.535c3.183,2.555,6.364,5.11,9.547,7.665c0.169-1.309,0.337-2.617,0.506-3.927
				c-2.357,1.764-4.714,3.527-7.071,5.291c-1.693,1.267-3.714,2.2-3.714,4.548c0,2.633-0.614,6.007,0.089,8.563
				c0.64,2.324,3.716,4.826,5.236,6.525c2.117,2.363,4.663,5.416,7.724,6.573c3.11,1.176,5.839-1.488,7.907-3.473
				c2.949-2.832,6.715-6.129,6.715-10.403c0-23.689,0-47.379,0-71.068c0-3.225-5-3.225-5,0c0,19.291,0,38.581,0,57.872
				c0,4.027,0,8.055,0,12.082c0,0.883,0,1.767,0,2.649c0,0.144,0.883-1.786-0.158-0.464c-0.934,1.186-1.91,2.334-2.903,3.47
				c-1.144,1.307-2.364,2.533-3.659,3.688c-1.406,1.254-0.918,1.182-2.104,0.396c-2.659-1.764-4.846-4.653-6.908-7.046
				c-0.764-0.884-1.504-1.786-2.238-2.693c-1.087-1.341,0.3,2.547,0.3,0.087c0-2.432,0-4.863,0-7.295
				c-0.413,0.72-0.825,1.439-1.238,2.159c3.183-2.381,6.364-4.762,9.547-7.143c1.155-0.865,1.885-2.82,0.506-3.927
				c-3.183-2.556-6.364-5.11-9.547-7.665c0,1.179,0,2.356,0,3.535c3.333-2.855,6.665-5.711,9.997-8.567
				c1.336-1.145,0.686-3.039-0.506-3.927c-3.332-2.48-6.664-4.961-9.997-7.441c0.413,0.72,0.825,1.439,1.238,2.159
				c0-4.359,0-8.718,0-13.077C-30.577,562.988-35.577,562.988-35.577,566.213L-35.577,566.213z"/>
		</g>
	</g>
	<g>
		<path fill="#FFFFFF" d="M-33.077,547.361"/>
		<g>
			<path d="M-33.077,549.861c3.224,0,3.224-5,0-5S-36.3,549.861-33.077,549.861L-33.077,549.861z"/>
		</g>
	</g>
	<g>
		<polygon fill="#FFFFFF" points="-45.207,652.891 3.83,652.891 -20.952,677.672 		"/>
		<g>
			<path d="M-45.207,655.391c16.346,0,32.691,0,49.036,0c-0.589-1.423-1.179-2.845-1.768-4.268
				c-8.261,8.26-16.521,16.521-24.781,24.781c1.179,0,2.356,0,3.535,0c-8.085-8.261-16.17-16.521-24.255-24.781
				c-2.258-2.308-5.791,1.23-3.535,3.535c8.085,8.261,16.17,16.521,24.255,24.781c0.952,0.974,2.58,0.955,3.535,0
				c8.261-8.26,16.521-16.521,24.781-24.781c1.543-1.543,0.413-4.268-1.768-4.268c-16.345,0-32.69,0-49.036,0
				C-48.431,650.391-48.431,655.391-45.207,655.391z"/>
		</g>
	</g>
	<g>
		<circle fill="#FFFFFF" cx="-21.741" cy="498.634" r="11.335"/>
		<g>
			<path d="M-12.906,498.634c-0.613,11.39-17.058,11.39-17.671,0C-31.191,487.238-13.517,487.299-12.906,498.634
				c0.173,3.207,5.174,3.224,5,0c-0.422-7.826-6.011-13.414-13.837-13.836c-7.81-0.421-13.446,6.645-13.834,13.836
				c-0.421,7.81,6.642,13.448,13.834,13.836c7.81,0.421,13.45-6.643,13.837-13.836C-7.732,495.41-12.733,495.427-12.906,498.634z"/>
		</g>
	</g>
</g>
<g>
	<path d="M-734.884,692.885c-11.222,0-14.813,0-24.688,0s-12.417-10.477-12.417-10.477v-79.299h51.47v77.506
		C-720.52,680.615-723.661,692.885-734.884,692.885z"/>
	<path d="M-533.515,686.318c-11.223,0-14.813,0-24.688,0c-9.876,0-12.417-10.475-12.417-10.475v-79.301h51.47v77.506
		C-519.149,674.049-522.293,686.318-533.515,686.318z"/>
	<g>
		<path fill="#FFFFFF" d="M-553.496,436.964c0,0-164.916,0-183.236,0c-18.32,5.116-33.562,108.712-33.562,108.712l239.87-1.458"/>
	</g>
	<g>
		<path fill="#FFFFFF" d="M-667.107,540.501c71.957,0,149.973,0,156.194,0c14.774,0,12.89,16.79,12.89,16.79v74.861h-303.148
			v-78.145c0,0,0.604-13.506,11.546-13.506c3.525,0,32.494,0,70.534,0"/>
		<g>
			<path d="M-667.107,543.001c49.537,0,99.074,0,148.611,0c4.938,0,11.192-0.952,15,2.771c3.119,3.049,2.973,7.804,2.973,11.794
				c0,11.557,0,23.115,0,34.672c0,13.305,0,26.609,0,39.914c0.833-0.834,1.667-1.668,2.5-2.5c-41.408,0-82.816,0-124.225,0
				c-55.568,0-111.138,0-166.706,0c-4.072,0-8.146,0-12.218,0c0.833,0.832,1.667,1.666,2.5,2.5c0-24.057,0-48.115,0-72.172
				c0-2.24-0.164-4.542,0.071-6.775c0.31-2.932,1.479-5.918,3.485-8.082c2.188-2.36,5.434-2.122,8.357-2.122
				c22.556,0,45.11,0,67.666,0c3.225,0,3.225-5,0-5c-22.556,0-45.11,0-67.666,0c-6.405,0-11.594,1.529-14.729,7.616
				c-1.529,2.97-2.186,6.364-2.186,9.685c0,25.184,0,50.37,0,75.555c0,0.432,0,0.863,0,1.295c0,1.363,1.137,2.5,2.5,2.5
				c41.408,0,82.816,0,124.225,0c55.568,0,111.138,0,166.706,0c4.072,0,8.146,0,12.218,0c1.363,0,2.5-1.137,2.5-2.5
				c0-24.039,0-48.078,0-72.117c0-9.34-1.122-19.724-12.287-21.777c-4.324-0.795-9.198-0.257-13.564-0.257
				c-8.741,0-17.481,0-26.223,0c-39.837,0-79.673,0-119.51,0C-670.332,538.001-670.332,543.001-667.107,543.001L-667.107,543.001z"
				/>
		</g>
	</g>
	<g>
		<circle fill="#FFFFFF" cx="-746.253" cy="586.328" r="21.16"/>
		<g>
			<path d="M-727.594,586.328c-0.337,10.426-8.235,18.32-18.659,18.658c-10.42,0.336-18.339-8.742-18.66-18.658
				c-0.337-10.422,8.744-18.34,18.66-18.66C-735.831,567.332-727.914,576.412-727.594,586.328c0.104,3.217,5.104,3.227,5,0
				c-0.427-13.186-10.473-23.232-23.659-23.66c-13.181-0.426-23.254,11.113-23.66,23.66c-0.427,13.18,11.115,23.252,23.66,23.658
				c13.179,0.426,23.253-11.111,23.659-23.658C-722.489,583.104-727.489,583.113-727.594,586.328z"/>
		</g>
	</g>
	<g>
		<circle fill="#FFFFFF" cx="-544.886" cy="586.328" r="21.16"/>
		<g>
			<path d="M-526.227,586.328c-0.337,10.426-8.235,18.32-18.659,18.658c-10.42,0.336-18.339-8.742-18.66-18.658
				c-0.337-10.422,8.744-18.34,18.66-18.66C-534.464,567.332-526.547,576.412-526.227,586.328c0.104,3.217,5.104,3.227,5,0
				c-0.427-13.186-10.473-23.232-23.659-23.66c-13.181-0.426-23.254,11.113-23.66,23.66c-0.427,13.18,11.115,23.252,23.66,23.658
				c13.179,0.426,23.253-11.111,23.659-23.658C-521.122,583.104-526.122,583.113-526.227,586.328z"/>
		</g>
	</g>
	<g>
		<rect x="-590.316" y="417.729" fill="#FFFFFF" width="98.756" height="98.757"/>
		<g>
			<path d="M-491.561,513.986c-32.919,0-65.837,0-98.756,0c0.833,0.833,1.667,1.667,2.5,2.5c0-32.919,0-65.838,0-98.757
				c-0.833,0.833-1.667,1.667-2.5,2.5c32.919,0,65.837,0,98.756,0c-0.833-0.833-1.667-1.667-2.5-2.5c0,32.919,0,65.838,0,98.757
				c0,3.225,5,3.225,5,0c0-32.919,0-65.838,0-98.757c0-1.362-1.137-2.5-2.5-2.5c-32.919,0-65.837,0-98.756,0
				c-1.363,0-2.5,1.138-2.5,2.5c0,32.919,0,65.838,0,98.757c0,1.363,1.137,2.5,2.5,2.5c32.919,0,65.837,0,98.756,0
				C-488.336,518.986-488.336,513.986-491.561,513.986z"/>
		</g>
	</g>
	<text transform="matrix(1.2642 0 0 1 -567.7012 498.6138)" font-family="'UVNHongHaHep'" font-size="82.0267">P</text>
	<g>
		<path fill="#FFFFFF" d="M-771.989,534.729c0,0,13.864-92.648,33.563-97.765c19.698,0,121.111,0,121.111,0"/>
		<g>
			<path d="M-769.578,535.394c3.755-25.018,8.813-50.541,17.594-74.305c2.246-6.08,4.87-12.487,8.944-17.604
				c3.235-4.063,5.809-4.021,10.669-4.021c15.32,0,30.641,0,45.962,0c23.031,0,46.063,0,69.095,0c3.225,0,3.225-5,0-5
				c-26.278,0-52.558,0-78.836,0c-13.675,0-27.35,0-41.023,0c-10.659,0-16.284,16.555-19.307,24.431
				c-9.165,23.884-14.129,49.921-17.92,75.169C-774.873,537.217-770.056,538.574-769.578,535.394L-769.578,535.394z"/>
		</g>
	</g>
</g>
<g>
	<g>
		<g>
			<path fill="#020202" d="M-187.693-328.598c46.446-22.353,102.796-6.33,130.685,36.817c25.62,39.637,19.263,92.891-13.427,126.401
				c-29.07,29.801-74.224,37.976-112.443,22.225c-2.98-1.229-4.267,3.611-1.328,4.821c44.477,18.33,97.117,4.6,126.265-33.841
				c27.132-35.783,28.905-85.533,4.54-123.229c-29.156-45.108-88.759-60.639-136.814-37.512
				C-193.121-331.517-190.583-327.207-187.693-328.598L-187.693-328.598z"/>
		</g>
	</g>
	<g>
		<circle fill="#FFFFFF" cx="-142.962" cy="-236.985" r="38.445"/>
		<g>
			<path fill="#020202" d="M-107.017-236.985c-0.35,19.856-16.089,35.595-35.945,35.945c-19.857,0.35-35.605-16.616-35.945-35.945
				c-0.35-19.857,16.615-35.606,35.945-35.946C-123.104-273.281-107.357-256.314-107.017-236.985c0.057,3.221,5.057,3.226,5,0
				c-0.381-21.61-16.726-38.955-38.199-40.85c-21.043-1.857-40.738,14.628-43.31,35.411c-2.668,21.559,11.817,41.533,33.135,45.701
				c21.126,4.131,41.65-9.828,47.136-30.23c0.874-3.253,1.18-6.676,1.238-10.032C-101.96-240.211-106.96-240.206-107.017-236.985z"
				/>
		</g>
	</g>
	<g>
		<path fill="#FFFFFF" d="M-50.566-132.599v8.536h11.074v-225.845c0,0-30.377,1.497-30.377,28.709c0,7.12,0,107.273,0,107.273
			l19.619-0.005v65.186"/>
		<g>
			<path fill="#020202" d="M-53.066-132.599c0,2.845,0,5.69,0,8.536c0,1.363,1.137,2.5,2.5,2.5c3.691,0,7.383,0,11.074,0
				c1.363,0,2.5-1.137,2.5-2.5c0-47.691,0-95.382,0-143.072c0-27.591,0-55.182,0-82.772c0-1.307-1.138-2.574-2.5-2.5
				c-10.181,0.551-21.453,5.162-27.511,13.601c-6.834,9.521-5.366,21.739-5.366,32.83c0,29.227,0,58.453,0,87.679
				c0,1.457,0,2.915,0,4.372c0,1.362,1.137,2.5,2.5,2.5c6.54-0.002,13.079-0.003,19.619-0.005c-0.833-0.833-1.667-1.667-2.5-2.5
				c0,21.729,0,43.458,0,65.186c0,3.224,5,3.224,5,0c0-21.729,0-43.458,0-65.186c0-1.362-1.137-2.5-2.5-2.5
				c-6.54,0.002-13.079,0.003-19.619,0.005c0.833,0.833,1.667,1.667,2.5,2.5c0-25.222,0-50.443,0-75.665c0-10.485,0-20.97,0-31.455
				c0-15.484,12.416-24.673,26.803-26.271c0.357-0.04,0.716-0.073,1.074-0.092c-0.833-0.833-1.667-1.667-2.5-2.5
				c0,47.691,0,95.382,0,143.072c0,27.591,0,55.182,0,82.772c0.833-0.833,1.667-1.667,2.5-2.5c-3.691,0-7.383,0-11.074,0
				c0.833,0.833,1.667,1.667,2.5,2.5c0-2.845,0-5.69,0-8.536C-48.066-135.823-53.066-135.823-53.066-132.599L-53.066-132.599z"/>
		</g>
	</g>
	<g>
		<polyline fill="#FFFFFF" points="-214.375,-281.405 -214.375,-120.873 -226.241,-120.873 -226.241,-137.326 		"/>
		<g>
			<path fill="#020202" d="M-216.875-281.405c0,49.392,0,98.783,0,148.175c0,4.12,0,8.239,0,12.358c0.833-0.833,1.667-1.667,2.5-2.5
				c-3.955,0-7.911,0-11.866,0c0.833,0.833,1.667,1.667,2.5,2.5c0-5.484,0-10.969,0-16.454c0-3.224-5-3.224-5,0
				c0,5.484,0,10.969,0,16.454c0,1.363,1.138,2.5,2.5,2.5c3.955,0,7.911,0,11.866,0c1.363,0,2.5-1.137,2.5-2.5
				c0-49.392,0-98.783,0-148.175c0-4.12,0-8.239,0-12.358C-211.875-284.629-216.875-284.629-216.875-281.405L-216.875-281.405z"/>
		</g>
	</g>
	<g>
		<line fill="#FFFFFF" x1="-226.241" y1="-159.001" x2="-226.241" y2="-280.785"/>
		<g>
			<path fill="#020202" d="M-223.741-159.001c0-40.595,0-81.189,0-121.784c0-3.224-5-3.224-5,0c0,40.595,0,81.189,0,121.784
				C-228.741-155.777-223.741-155.777-223.741-159.001L-223.741-159.001z"/>
		</g>
	</g>
	<g>
		<path fill="#FFFFFF" d="M-226.241-281.405c-12.622-7.93-23.731-15.75-23.731-21.463c0-6.561,0-50.23,0-50.23"/>
		<g>
			<path fill="#020202" d="M-224.979-283.564c-5.313-3.354-10.61-6.757-15.516-10.693c-2.76-2.214-6.978-5.42-6.978-9.308
				c0-5.421,0-10.843,0-16.264c0-11.09,0-22.18,0-33.27c0-3.224-5-3.224-5,0c0,12.097,0,24.194,0,36.291
				c0,5.121-0.848,11.113,0.335,16.141c0.957,4.069,5.104,7.421,8.106,9.946c5.129,4.311,10.876,7.906,16.528,11.475
				C-224.767-277.52-222.261-281.848-224.979-283.564L-224.979-283.564z"/>
		</g>
	</g>
	<g>
		<path fill="#FFFFFF" d="M-190.643-353.099c0,0,0,42.077,0,50.23c0,7.005-9.97,13.481-23.177,21.134"/>
		<g>
			<path fill="#020202" d="M-193.143-353.099c0,10.608,0,21.216,0,31.824c0,5.848,0,11.697,0,17.545
				c0,3.917-2.606,6.496-5.372,8.968c-4.886,4.365-10.936,7.592-16.566,10.869c-2.784,1.621-0.269,5.943,2.523,4.317
				c7.816-4.55,19.711-10.052,23.457-19.013c2.119-5.07,0.958-12.148,0.958-17.519c0-12.331,0-24.661,0-36.992
				C-188.143-356.323-193.143-356.323-193.143-353.099L-193.143-353.099z"/>
		</g>
	</g>
	<g>
		<g>
			<path fill="#020202" d="M-232.142-350.088c0,13.816,0,27.633,0,41.45c0,3.224,5,3.224,5,0c0-13.816,0-27.633,0-41.45
				C-227.142-353.313-232.142-353.313-232.142-350.088L-232.142-350.088z"/>
		</g>
	</g>
	<g>
		<g>
			<path fill="#020202" d="M-215.056-350.013c0,13.816,0,27.632,0,41.448c0,3.224,5,3.224,5,0c0-13.816,0-27.632,0-41.448
				C-210.056-353.237-215.056-353.237-215.056-350.013L-215.056-350.013z"/>
		</g>
	</g>
</g>
<g>
	<g>
		<g>
			<path fill="#FFFFFF" d="M887.104,592.733c0,18.414-14.929,33.34-33.341,33.34c-18.411,0-33.34-14.926-33.34-33.34
				c0-18.41,14.929-33.339,33.34-33.339C872.176,559.395,887.104,574.323,887.104,592.733z"/>
			<g>
				<path d="M884.604,592.733c-0.346,17.067-13.773,30.494-30.841,30.84s-30.505-14.292-30.84-30.84
					c-0.346-17.065,14.294-30.504,30.84-30.839C870.83,561.549,884.27,576.187,884.604,592.733c0.065,3.22,5.065,3.227,5,0
					c-0.401-19.812-16.03-35.438-35.841-35.839s-35.451,16.632-35.84,35.839c-0.401,19.812,16.632,35.451,35.84,35.84
					c19.813,0.401,35.452-16.631,35.841-35.84C889.67,589.507,884.67,589.514,884.604,592.733z"/>
			</g>
		</g>
		<g>
			<g>
				<path d="M661.561,495.402c0-23.271,0-46.542,0-69.812c0-1.579-0.246,0.313,0.043-0.665c0.376-1.27,0.833-2.515,1.311-3.749
					c1.941-5.019,4.634-9.761,7.693-14.175c10.836-15.629,28.082-24.202,46.91-25.069c18.93-0.872,36.721,6.476,47.005,22.733
					c3.032,4.793,5.226,10.069,6.759,15.518c0.44,1.565,0.805,3.152,1.105,4.75c0.135,0.718,0.195,1.712,0.195,1.163
					c0,23.253,0,46.507,0,69.761c0,13.272,0,26.544,0,39.816c0,5.652-0.426,11.492,0.005,17.134
					c0.604,7.929,3.609,15.899,7.856,22.557c8.8,13.793,24.101,19.7,39.98,19.87c3.226,0.034,3.223-4.966,0-5
					c-17.849-0.19-33.142-8.539-39.837-25.5c-2.044-5.18-3.005-9.839-3.005-15.151c0-27.385,0-54.77,0-82.154
					c0-12.102,0-24.203,0-36.304c0-4.721-0.431-8.678-1.77-13.286c-3.655-12.581-11.104-23.846-21.843-31.444
					c-16.091-11.385-39.093-11.945-57.195-5.618c-14.236,4.976-25.742,15.45-33.427,28.258c-2.892,4.821-6.787,11.25-6.787,17.104
					c0,23.088,0,46.176,0,69.264C656.561,498.626,661.561,498.626,661.561,495.402L661.561,495.402z"/>
			</g>
		</g>
		<g>
			<g>
				<path d="M611.447,601.085c0.146,6.113,0.291,12.226,0.437,18.339c0.032,1.362,1.112,2.5,2.5,2.5c8.446,0,16.893,0,25.339,0
					c3.225,0,3.225-5,0-5c-8.446,0-16.893,0-25.339,0c0.833,0.833,1.667,1.667,2.5,2.5c-0.146-6.113-0.291-12.226-0.437-18.339
					C616.371,597.866,611.37,597.858,611.447,601.085L611.447,601.085z"/>
			</g>
		</g>
		<g>
			<g>
				<path d="M682.065,621.924c8.112,0,16.225,0,24.337,0c1.374,0,2.485-1.138,2.5-2.5c0.128-11.804,0.221-23.607,0.282-35.412
					c0.07-13.412,0.854-27.147-0.641-40.508c-1.74-15.553-7.312-32.178-20.39-41.826c-15.619-11.523-39.97-12.187-55.576-0.347
					c-25.289,19.185-22.354,57.795-22.026,85.801c0.038,3.222,5.038,3.226,5,0c-0.334-28.477-3.84-75.192,29.925-87.128
					c10.561-3.733,23.553-2.697,33.638,2.001c8.286,3.86,14.236,10.894,18.245,18.945c6.073,12.2,6.783,25.883,6.856,39.23
					c0.108,19.746-0.101,39.498-0.313,59.243c0.833-0.833,1.667-1.667,2.5-2.5c-8.112,0-16.225,0-24.337,0
					C678.841,616.924,678.841,621.924,682.065,621.924L682.065,621.924z"/>
			</g>
		</g>
	</g>
	<g>
		<rect x="633.421" y="610.255" fill="#FFFFFF" width="9.554" height="18.911"/>
		<g>
			<path d="M642.975,626.666c-3.185,0-6.369,0-9.554,0c0.833,0.833,1.667,1.667,2.5,2.5c0-6.304,0-12.607,0-18.911
				c-0.833,0.833-1.667,1.667-2.5,2.5c3.185,0,6.369,0,9.554,0c-0.833-0.833-1.667-1.667-2.5-2.5c0,6.304,0,12.607,0,18.911
				c0,3.225,5,3.225,5,0c0-6.304,0-12.607,0-18.911c0-1.362-1.137-2.5-2.5-2.5c-3.185,0-6.369,0-9.554,0c-1.362,0-2.5,1.138-2.5,2.5
				c0,6.304,0,12.607,0,18.911c0,1.363,1.138,2.5,2.5,2.5c3.185,0,6.369,0,9.554,0C646.199,631.666,646.199,626.666,642.975,626.666
				z"/>
		</g>
	</g>
	<g>
		<rect x="674.308" y="609.969" fill="#FFFFFF" width="9.553" height="18.91"/>
		<g>
			<path d="M683.86,626.379c-3.185,0-6.368,0-9.553,0c0.833,0.833,1.667,1.667,2.5,2.5c0-6.304,0-12.606,0-18.91
				c-0.833,0.833-1.667,1.667-2.5,2.5c3.185,0,6.368,0,9.553,0c-0.833-0.833-1.667-1.667-2.5-2.5c0,6.304,0,12.606,0,18.91
				c0,3.225,5,3.225,5,0c0-6.304,0-12.606,0-18.91c0-1.363-1.138-2.5-2.5-2.5c-3.185,0-6.368,0-9.553,0c-1.362,0-2.5,1.137-2.5,2.5
				c0,6.304,0,12.606,0,18.91c0,1.363,1.138,2.5,2.5,2.5c3.185,0,6.368,0,9.553,0C687.085,631.379,687.085,626.379,683.86,626.379z"
				/>
		</g>
	</g>
</g>
<g>
	<g>
		<circle fill="#FFFFFF" cx="141.968" cy="-236.985" r="102.814"/>
		<g>
			<path d="M242.282-236.985c-0.314,46.953-33.273,87.821-79.099,98.071c-46.071,10.305-93.428-14.728-112.865-57.191
				c-19.736-43.118-4.494-95.453,33.678-122.769c38.432-27.503,92.149-23.217,126.563,8.685
				C230.849-291.379,242.098-264.529,242.282-236.985c0.021,3.223,5.021,3.225,5,0c-0.297-44.341-28.281-83.948-69.885-99.2
				c-42.082-15.427-90.448-0.796-118.12,34.003c-27.806,34.969-29.73,85.002-5.718,122.441
				c24.081,37.546,70.474,55.284,113.584,45.041c46.784-11.116,79.819-54.655,80.139-102.286
				C247.304-240.21,242.304-240.208,242.282-236.985z"/>
		</g>
	</g>
	<g>
		<path fill="#FFFFFF" d="M222.972-270.724c7.719-18.177,15.479-34.942,15.479-45.314c0-20.628-26.764-81.777,23.331-81.777
			s21.61,68.646,21.61,82.398c0,13.755,29.469,71.708,29.469,99.27c0,27.564-8.345,69.311-12.769,74.712
			c-4.426,5.403-20.629,11.79-39.786,11.79c-19.155,0-35.849-7.371-40.764-11.79c-4.916-4.417-11.787-44.102-11.787-76.077
			c0-5.022,0.758-10.389,2.035-15.949"/>
		<g>
			<path d="M225.13-269.462c5.407-12.702,11.728-25.452,14.862-38.961c1.521-6.551,0.714-12.793-0.468-19.305
				c-2.657-14.639-6.776-29.383-5.457-44.396c0.597-6.787,3.017-13.32,8.301-17.805c6.564-5.573,16.829-5.927,24.931-5.08
				c16.472,1.722,21.757,15.94,21.651,30.593c-0.1,13.887-3.943,27.371-6.843,40.845c-0.912,4.234-1.509,8.122-0.697,12.415
				c1.387,7.329,4.35,14.46,6.945,21.418c7.206,19.319,15.335,38.504,19.994,58.65c4.876,21.085,0.487,44.381-3.638,65.26
				c-1.246,6.306-2.662,12.63-4.717,18.727c-1.894,5.62-6.332,7.881-11.698,10.028c-18.985,7.597-42.035,6.428-60.462-2.178
				c-4.913-2.294-7.271-4.152-8.943-9.223c-2.35-7.124-3.6-14.66-4.79-22.045c-3.22-19.974-6.291-42.329-1.9-62.278
				c0.691-3.142-4.129-4.478-4.822-1.329c-2.981,13.549-2.153,27.231-1.009,40.961c1.002,12.025,2.615,24.056,5.094,35.869
				c1.152,5.496,2.224,14.144,6.822,18.064c7.658,6.528,19.238,9.352,28.862,10.988c13.234,2.25,27.162,1.056,39.911-3.083
				c6.45-2.094,14.015-5.223,16.78-11.881c3.314-7.979,4.868-16.807,6.457-25.253c2.197-11.678,3.749-23.506,4.603-35.358
				c0.676-9.389,0.472-18.305-1.488-27.519c-2.125-9.99-5.449-19.731-8.86-29.342c-5.999-16.898-14.264-33.642-18.191-51.192
				c-0.936-4.182,0.065-8.125,0.976-12.231c1.425-6.422,2.987-12.81,4.216-19.274c2.558-13.455,4.487-28.577-1.281-41.478
				c-6.161-13.781-22.556-16.984-36.157-14.919c-14.796,2.246-23.177,12.301-24.956,26.802c-1.74,14.181,2.051,28.828,4.794,42.644
				c1.176,5.923,2.568,12.045,1.694,18.102c-2.012,13.927-9.387,27.448-14.831,40.239
				C219.565-269.054,223.871-266.503,225.13-269.462L225.13-269.462z"/>
		</g>
	</g>
	<g>
		<g>
			<path d="M240.646-325.57c14.243,0,28.485,0,42.729,0c3.225,0,3.225-5,0-5c-14.243,0-28.485,0-42.729,0
				C237.422-330.57,237.422-325.57,240.646-325.57L240.646-325.57z"/>
		</g>
	</g>
	<g>
		<g>
			<path d="M240.646-312.309c13.425,0,26.849,0,40.273,0c3.225,0,3.225-5,0-5c-13.425,0-26.849,0-40.273,0
				C237.422-317.309,237.422-312.309,240.646-312.309L240.646-312.309z"/>
		</g>
	</g>
	<g>
		<circle fill="#FFFFFF" cx="147.573" cy="-256.486" r="12.892"/>
		<g>
			<path d="M157.965-256.486c-0.676,13.396-20.108,13.396-20.784,0C136.504-269.889,157.292-269.823,157.965-256.486
				c0.162,3.208,5.163,3.224,5,0c-0.438-8.689-6.702-14.953-15.392-15.391c-8.674-0.438-14.987,7.363-15.393,15.391
				c-0.438,8.674,7.364,14.987,15.393,15.392c8.675,0.438,14.986-7.363,15.392-15.392
				C163.128-259.71,158.127-259.694,157.965-256.486z"/>
		</g>
	</g>
	<g>
		<circle fill="#FFFFFF" cx="172.99" cy="-290.744" r="12.525"/>
		<g>
			<path d="M183.015-290.744c-0.696,12.922-19.354,12.922-20.05,0C162.269-303.67,182.322-303.602,183.015-290.744
				c0.173,3.207,5.174,3.224,5,0c-0.458-8.5-6.526-14.566-15.025-15.023c-8.481-0.457-14.604,7.212-15.024,15.023
				c-0.457,8.481,7.213,14.604,15.024,15.025c8.482,0.457,14.604-7.214,15.025-15.025
				C188.188-293.967,183.188-293.95,183.015-290.744z"/>
		</g>
	</g>
	<g>
		<circle fill="#FFFFFF" cx="126.761" cy="-293.996" r="20.813"/>
		<g>
			<path d="M145.073-293.996c-0.331,10.232-8.082,17.981-18.313,18.312c-10.227,0.331-17.997-8.582-18.312-18.312
				c-0.331-10.227,8.58-17.998,18.312-18.313C136.987-312.64,144.759-303.728,145.073-293.996c0.104,3.216,5.104,3.226,5,0
				c-0.42-12.994-10.32-22.893-23.313-23.313c-12.986-0.42-22.911,10.951-23.312,23.313c-0.42,12.986,10.95,22.912,23.312,23.312
				c12.986,0.42,22.913-10.95,23.313-23.312C150.178-297.222,145.178-297.211,145.073-293.996z"/>
		</g>
	</g>
	<g>
		<g>
			<path d="M76.882-190.776c-2.62-3.746-4.933-7.667-6.938-11.773c-1.416-2.897-5.728-0.361-4.318,2.523
				c2.008,4.107,4.319,8.028,6.939,11.773C74.397-185.631,78.734-188.126,76.882-190.776L76.882-190.776z"/>
		</g>
	</g>
	<g>
		<g>
			<path d="M141.969-157.177c-18.816-0.188-36.728-6.608-51.246-18.612c-2.464-2.038-6.021,1.479-3.535,3.535
				c15.567,12.871,34.569,19.875,54.781,20.077C145.194-152.145,145.191-157.145,141.969-157.177L141.969-157.177z"/>
		</g>
	</g>
</g>
<g>
	<g>
		<polyline fill="#FFFFFF" points="1306.676,-19.978 1309.654,-62.65 1556.006,-62.65 1574.376,152.801 1294.624,152.801 
			1304.587,9.939 		"/>
		<g>
			<path d="M1309.176-19.978c0.993-14.224,1.985-28.448,2.979-42.672c-0.833,0.833-1.667,1.667-2.5,2.5c46.041,0,92.082,0,138.124,0
				c36.075,0,72.151,0,108.228,0c-0.833-0.833-1.667-1.667-2.5-2.5c4.103,48.118,8.205,96.235,12.309,144.353
				c2.021,23.699,4.041,47.398,6.062,71.098c0.833-0.833,1.667-1.667,2.5-2.5c-43.298,0-86.595,0-129.893,0
				c-49.339,0-98.678,0-148.017,0c-0.614,0-1.229,0-1.843,0c0.833,0.833,1.667,1.667,2.5,2.5
				c3.274-46.957,6.55-93.915,9.824-140.872c0.046-0.663,0.093-1.326,0.139-1.989c0.225-3.22-4.777-3.198-5,0
				c-3.274,46.957-6.55,93.915-9.824,140.872c-0.046,0.663-0.093,1.326-0.139,1.989c-0.095,1.361,1.209,2.5,2.5,2.5
				c43.298,0,86.595,0,129.893,0c49.339,0,98.678,0,148.017,0c0.614,0,1.229,0,1.843,0c1.275,0,2.616-1.14,2.5-2.5
				c-4.103-48.118-8.205-96.235-12.308-144.353c-2.021-23.699-4.042-47.398-6.063-71.098c-0.115-1.357-1.05-2.5-2.5-2.5
				c-46.041,0-92.082,0-138.124,0c-36.075,0-72.151,0-108.228,0c-1.435,0-2.405,1.141-2.5,2.5
				c-0.993,14.224-1.985,28.448-2.979,42.672C1303.951-16.758,1308.952-16.78,1309.176-19.978L1309.176-19.978z"/>
		</g>
	</g>
	<g>
		<g>
			<path d="M1385.647-32.593c49.771,0,99.543,0,149.314,0c7.571,0,15.143,0,22.714,0c3.225,0,3.225-5,0-5
				c-49.771,0-99.543,0-149.314,0c-7.571,0-15.143,0-22.714,0C1382.423-37.593,1382.423-32.593,1385.647-32.593L1385.647-32.593z"/>
		</g>
	</g>
	<g>
		<g>
			<path d="M1360.596-37.593c-11.691,0-23.383,0-35.074,0c-3.225,0-3.225,5,0,5c11.691,0,23.383,0,35.074,0
				C1363.82-32.593,1363.82-37.593,1360.596-37.593L1360.596-37.593z"/>
		</g>
	</g>
	<g>
		<g>
			<path d="M1382.313,9.167c-0.58,10.771-16.131,10.772-16.711,0C1365.021-1.61,1381.735-1.553,1382.313,9.167
				c0.173,3.207,5.174,3.224,5,0c-0.407-7.555-5.802-12.949-13.356-13.356c-7.538-0.406-12.98,6.414-13.354,13.356
				c-0.406,7.538,6.412,12.982,13.354,13.356c7.538,0.406,12.982-6.414,13.356-13.356C1387.486,5.943,1382.485,5.96,1382.313,9.167z
				"/>
		</g>
	</g>
	<g>
		<g>
			<path d="M1490.875,9.167c-0.58,10.771-16.133,10.772-16.713,0C1473.582-1.611,1490.298-1.553,1490.875,9.167
				c0.173,3.207,5.174,3.224,5,0c-0.407-7.556-5.804-12.949-13.358-13.356c-7.538-0.406-12.98,6.414-13.354,13.356
				c-0.406,7.538,6.412,12.982,13.354,13.356c7.539,0.406,12.984-6.413,13.358-13.356C1496.049,5.943,1491.048,5.96,1490.875,9.167z
				"/>
		</g>
	</g>
	<g>
		<g>
			<path d="M1378.962-62.65c0.357-28.264,23.1-51.006,51.363-51.363c28.267-0.358,51.012,23.638,51.362,51.363
				c0.041,3.222,5.041,3.226,5,0c-0.393-30.992-25.369-55.971-56.362-56.363c-30.996-0.392-55.979,25.961-56.363,56.363
				C1373.921-59.424,1378.921-59.428,1378.962-62.65L1378.962-62.65z"/>
		</g>
	</g>
	<g>
		<g>
			<path d="M1478.348,19.553c-0.357,28.265-23.098,51.006-51.363,51.363c-28.268,0.357-51.013-23.637-51.363-51.363
				c-0.041-3.222-5.041-3.226-5,0c0.393,30.993,25.37,55.971,56.363,56.363c30.997,0.393,55.979-25.959,56.363-56.363
				C1483.389,16.327,1478.389,16.331,1478.348,19.553L1478.348,19.553z"/>
		</g>
	</g>
</g>
<g>
	<g>
		<path fill="#FFFFFF" d="M1931.254,620.855c-10.059,0-13.036-9.684-13.036-9.684v-39.479h287.517v39.105
			c0,0-1.861,10.057-13.408,10.057"/>
		<g>
			<path d="M1931.254,618.355c-4.041-0.186-7.135-1.943-9.354-5.301c-0.412-0.623-0.791-1.318-1.077-2.012
				c-0.432-1.049-0.104,0.525-0.104-0.157c0-3.915,0-7.829,0-11.745c0-9.148,0-18.298,0-27.447c-0.833,0.834-1.667,1.666-2.5,2.5
				c42.604,0,85.21,0,127.814,0c51.734,0,103.469,0,155.203,0c1.499,0,2.999,0,4.499,0c-0.834-0.834-1.666-1.666-2.5-2.5
				c0,9.256,0,18.514,0,27.77c0,8.902,1.752,18.41-10.908,18.893c-3.213,0.123-3.225,5.123,0,5c7.072-0.27,12.58-3.594,15.3-10.195
				c1.096-2.66,0.608-5.866,0.608-8.659c0-10.936,0-21.872,0-32.808c0-1.363-1.137-2.5-2.5-2.5c-42.605,0-85.209,0-127.814,0
				c-51.734,0-103.469,0-155.203,0c-1.5,0-3,0-4.499,0c-1.362,0-2.5,1.137-2.5,2.5c0,10.589,0,21.178,0,31.767
				c0,2.85-0.679,6.579,0.442,9.297c2.644,6.415,8.172,10.28,15.094,10.599C1934.479,623.504,1934.464,618.503,1931.254,618.355
				L1931.254,618.355z"/>
		</g>
	</g>
	<path fill="none" stroke="#000000" stroke-miterlimit="10" d="M1931.254,651.207"/>
	<g>
		<path fill="#FFFFFF" d="M1931.254,620.855l5.494,46.652l1.838,15.6l2.49,21.154l5.317,45.139c0,0,1.618,9.254,10.558,9.254
			s197.76,0,204.092,0s8.979-10.893,8.979-10.893l22.305-126.906"/>
		<g>
			<path d="M1928.754,620.855c2.498,21.213,4.998,42.427,7.496,63.641c1.234,10.489,2.469,20.979,3.705,31.468
				c0.92,7.813,1.84,15.625,2.761,23.438c0.433,3.674,0.513,7.617,1.396,11.225c1.527,6.236,6.74,10.527,13.184,10.527
				c2.398,0,4.799,0,7.198,0c11.007,0,22.015,0,33.022,0c33.004,0,66.008,0,99.012,0c21.291,0,42.582,0,63.873,0
				c8.578,0,11.461-9.479,12.694-16.496c1.985-11.293,3.97-22.584,5.954-33.877c5.229-29.754,10.459-59.508,15.688-89.262
				c0.554-3.152-4.264-4.5-4.821-1.328c-3.89,22.131-7.779,44.264-11.67,66.395c-2.57,14.629-5.143,29.259-7.713,43.888
				c-1.105,6.285-1.561,13.155-3.746,19.196c-1.713,4.73-4.225,6.484-8.766,6.484c-3.529,0-7.06,0-10.59,0
				c-12.559,0-25.116,0-37.675,0c-33.269,0-66.538,0-99.808,0c-12.801,0-25.602,0-38.402,0c-6.689,0-18.173,2.15-21.854-4.759
				c-0.426-0.8-0.686-1.71-0.877-2.593c0.273,1.265,0-0.057-0.037-0.367c-0.291-2.473-0.582-4.945-0.873-7.418
				c-0.914-7.758-1.828-15.516-2.742-23.273c-1.258-10.681-2.516-21.361-3.773-32.043c-2.544-21.615-5.092-43.23-7.637-64.846
				C1933.381,617.693,1928.377,617.657,1928.754,620.855L1928.754,620.855z"/>
		</g>
	</g>
	<g>
		<g>
			<path d="M1992.705,623.355c49.289,0,98.578,0,147.867,0c17.252,0,34.503,0,51.754,0c3.225,0,3.225-5,0-5
				c-49.289,0-98.578,0-147.867,0c-17.252,0-34.503,0-51.754,0C1989.48,618.355,1989.48,623.355,1992.705,623.355L1992.705,623.355z
				"/>
		</g>
	</g>
	<g>
		<g>
			<path d="M1943.918,623.355c9.434,0,18.869,0,28.304,0c3.224,0,3.224-5,0-5c-9.435,0-18.87,0-28.304,0
				C1940.693,618.355,1940.693,623.355,1943.918,623.355L1943.918,623.355z"/>
		</g>
	</g>
	<g>
		<g>
			<path d="M1994.184,593.811c15.146-24.828,30.291-49.657,45.438-74.486c1.684-2.76-2.643-5.271-4.318-2.523
				c-15.146,24.829-30.291,49.658-45.438,74.486C1988.182,594.048,1992.508,596.559,1994.184,593.811L1994.184,593.811z"/>
		</g>
	</g>
	<g>
		<circle fill="#FFFFFF" cx="2044.354" cy="505.778" r="12.286"/>
		<g>
			<path d="M2054.141,505.778c-0.68,12.613-18.894,12.613-19.572,0C2033.889,493.158,2053.465,493.224,2054.141,505.778
				c0.173,3.207,5.174,3.224,5,0c-0.451-8.365-6.422-14.335-14.786-14.786c-8.347-0.45-14.372,7.099-14.786,14.786
				c-0.45,8.347,7.1,14.371,14.786,14.785c8.347,0.449,14.372-7.097,14.786-14.785
				C2059.314,502.554,2054.313,502.571,2054.141,505.778z"/>
		</g>
	</g>
	<g>
		<g>
			<path d="M2133.712,591.287c-15.146-24.828-30.29-49.657-45.436-74.486c-1.676-2.748-6.001-0.237-4.317,2.523
				c15.145,24.829,30.291,49.658,45.436,74.486C2131.07,596.559,2135.396,594.048,2133.712,591.287L2133.712,591.287z"/>
		</g>
	</g>
	<g>
		<circle fill="#FFFFFF" cx="2079.225" cy="505.778" r="12.287"/>
		<g>
			<path d="M2064.438,505.778c0.451,8.364,6.42,14.335,14.785,14.785c8.348,0.45,14.375-7.096,14.789-14.785
				c0.449-8.348-7.102-14.372-14.789-14.786C2070.877,490.542,2064.852,498.091,2064.438,505.778c-0.174,3.224,4.827,3.207,5,0
				c0.68-12.614,18.895-12.614,19.574,0c0.68,12.62-18.898,12.554-19.574,0C2069.265,502.571,2064.264,502.554,2064.438,505.778z"/>
		</g>
	</g>
	<g>
		<g>
			<path d="M2002.264,741.789c49.744,0,99.488,0,149.232,0c6.158,0,12.317,0,18.477,0c3.224,0,3.224-5,0-5
				c-49.744,0-99.488,0-149.232,0c-6.159,0-12.318,0-18.477,0C1999.039,736.789,1999.039,741.789,2002.264,741.789L2002.264,741.789
				z"/>
		</g>
	</g>
</g>
<g>
	<g>
		<g>
			<path d="M2075.203,248.899c11.953,0,23.907,0,35.86,0c1.362,0,2.5-1.138,2.5-2.5c0-19.337,0-38.673,0-58.01
				c-0.413,0.72-0.825,1.439-1.238,2.159c4.922-2.813,9.844-5.625,14.766-8.438c0.763-0.437,1.238-1.285,1.238-2.159
				c0-11.91,0-23.82,0-35.73c0-7.844,1.332-16.701-1.212-24.3c-9.671-28.89-60.997-29.673-68.797,0.928
				c-0.513,2.011-0.384,4.023-0.384,6.084c0,6.715,0,13.43,0,20.145c0,11.31,0,22.619,0,33.928c0,0.846,0.468,1.759,1.238,2.159
				c4.746,2.461,9.492,4.922,14.238,7.383c-0.413-0.72-0.825-1.439-1.238-2.159c0.176,19.337,0.353,38.673,0.528,58.01
				c0.029,3.223,5.029,3.226,5,0c-0.176-19.337-0.353-38.673-0.528-58.01c-0.008-0.848-0.463-1.757-1.238-2.159
				c-4.746-2.461-9.492-4.922-14.238-7.383c0.413,0.72,0.825,1.439,1.238,2.159c0-11.634,0-23.267,0-34.901
				c0-6.562,0-13.124,0-19.685c0-1.134,0-2.268,0-3.401c0,1.205,0.411-1.626,0.616-2.289c5.466-17.646,29.79-20.911,44.677-14.615
				c6.452,2.729,11.43,8.103,13.886,14.625c1.153,3.065,1.214,3.913,1.214,6.161c0,17.684,0,35.367,0,53.051
				c0.413-0.72,0.825-1.439,1.238-2.159c-4.922,2.813-9.844,5.625-14.766,8.438c-0.763,0.437-1.238,1.285-1.238,2.159
				c0,19.337,0,38.673,0,58.01c0.833-0.833,1.667-1.667,2.5-2.5c-11.953,0-23.907,0-35.86,0
				C2071.979,243.899,2071.979,248.899,2075.203,248.899z"/>
		</g>
	</g>
	<g>
		<path fill="#FFFFFF" d="M2342.514,270.658c0,2.912-2.36,5.273-5.273,5.273H2029.39c-2.912,0-5.273-2.361-5.273-5.273V21.743
			c0-2.913,2.361-5.274,5.273-5.274h307.851c2.913,0,5.273,2.361,5.273,5.274V270.658z"/>
		<g>
			<path d="M2340.014,270.658c-0.508,4.412-10.045,2.773-12.428,2.773c-8.898,0-17.797,0-26.695,0c-28.599,0-57.197,0-85.796,0
				c-56.697,0-113.396,0-170.093,0c-4.965,0-9.93,0-14.895,0c-4.71,0-3.491-6.485-3.491-9.248c0-22.777,0-45.554,0-68.331
				c0-55.641,0-111.281,0-166.922c0-2.561-1.337-9.961,3.289-9.961c4.723,0,9.445,0,14.168,0c23.806,0,47.611,0,71.417,0
				c61.349,0,122.696,0,184.044,0c12.567,0,25.135,0,37.702,0c4.517,0,2.777,12.071,2.777,14.021c0,10.356,0,20.712,0,31.068
				c0,59.98,0,119.96,0,179.941C2340.014,252.885,2340.014,261.772,2340.014,270.658c0,3.225,5,3.225,5,0
				c0-45.805,0-91.609,0-137.415c0-28.708,0-57.415,0-86.122c0-7.478,0-14.956,0-22.435c0-5.504-1.834-10.717-8.491-10.717
				c-45.084,0-90.168,0-135.253,0c-54.075,0-108.15,0-162.226,0c-3.589,0-7.291-0.272-10.863,0.139
				c-7.624,0.878-6.564,9.371-6.564,14.822c0,23.157,0,46.314,0,69.472c0,55.26,0,110.52,0,165.781
				c0,5.762-0.616,14.248,7.777,14.248c3.475,0,6.948,0,10.422,0c22.245,0,44.49,0,66.735,0c61.972,0,123.944,0,185.917,0
				c11.706,0,23.412,0,35.118,0c6.861,0,16.344,1.636,17.428-7.773C2345.382,267.458,2340.378,267.494,2340.014,270.658z"/>
		</g>
	</g>
	<g>
		<g>
			<path d="M2164.037,249.285c11.953,0,23.906,0,35.859,0c1.363,0,2.5-1.137,2.5-2.5c0-19.337,0-38.673,0-58.01
				c-0.413,0.72-0.825,1.439-1.238,2.158c4.922-2.813,9.844-5.625,14.766-8.438c0.763-0.436,1.238-1.284,1.238-2.158
				c0-11.91,0-23.82,0-35.73c0-7.844,1.332-16.701-1.211-24.3c-9.671-28.891-60.997-29.673-68.797,0.928
				c-0.513,2.011-0.384,4.023-0.384,6.084c0,6.715,0,13.43,0,20.145c0,11.31,0,22.619,0,33.928c0,0.846,0.468,1.759,1.238,2.158
				c4.746,2.461,9.491,4.922,14.237,7.383c-0.413-0.719-0.825-1.438-1.238-2.158c0.177,19.337,0.353,38.673,0.529,58.01
				c0.029,3.223,5.029,3.226,5,0c-0.177-19.337-0.353-38.673-0.529-58.01c-0.008-0.848-0.463-1.757-1.238-2.158
				c-4.746-2.461-9.491-4.922-14.237-7.383c0.413,0.719,0.825,1.438,1.238,2.158c0-11.634,0-23.267,0-34.901
				c0-6.562,0-13.124,0-19.685c0-1.134,0-2.268,0-3.401c0,1.205,0.411-1.626,0.616-2.289c5.465-17.646,29.79-20.912,44.677-14.615
				c6.452,2.729,11.429,8.103,13.885,14.625c1.153,3.065,1.214,3.913,1.214,6.161c0,17.684,0,35.367,0,53.051
				c0.413-0.72,0.825-1.439,1.238-2.158c-4.922,2.813-9.844,5.625-14.766,8.438c-0.763,0.436-1.238,1.284-1.238,2.158
				c0,19.337,0,38.673,0,58.01c0.833-0.833,1.667-1.667,2.5-2.5c-11.953,0-23.906,0-35.859,0
				C2160.813,244.285,2160.813,249.285,2164.037,249.285z"/>
		</g>
	</g>
	<g>
		<g>
			<path d="M2200.033,66.183c-0.326,10.094-7.972,17.74-18.066,18.067c-10.091,0.327-17.757-8.466-18.067-18.067
				c-0.326-10.091,8.466-17.757,18.067-18.067C2192.058,47.789,2199.723,56.582,2200.033,66.183c0.104,3.216,5.104,3.226,5,0
				c-0.416-12.855-10.211-22.651-23.066-23.067c-12.851-0.416-22.672,10.835-23.067,23.067
				c-0.416,12.85,10.835,22.671,23.067,23.067c12.85,0.416,22.671-10.835,23.066-23.067
				C2205.138,62.957,2200.137,62.967,2200.033,66.183z"/>
		</g>
	</g>
	<g>
		<g>
			<path d="M2064.613,247.937c11.953,0,23.907,0,35.86,0c1.362,0,2.5-1.137,2.5-2.5c0-19.337,0-38.673,0-58.01
				c-0.413,0.72-0.825,1.439-1.238,2.158c4.922-2.813,9.844-5.625,14.766-8.438c0.763-0.437,1.238-1.285,1.238-2.159
				c0-11.91,0-23.82,0-35.73c0-7.844,1.332-16.701-1.212-24.299c-9.671-28.892-60.996-29.673-68.798,0.927
				c-0.513,2.011-0.384,4.023-0.384,6.084c0,6.715,0,13.43,0,20.145c0,11.31,0,22.619,0,33.928c0,0.846,0.468,1.759,1.238,2.159
				c4.747,2.461,9.493,4.922,14.24,7.383c-0.413-0.719-0.825-1.438-1.238-2.158c0.176,19.337,0.352,38.673,0.527,58.01
				c0.029,3.223,5.029,3.226,5,0c-0.176-19.337-0.352-38.673-0.527-58.01c-0.008-0.848-0.463-1.757-1.238-2.158
				c-4.747-2.462-9.493-4.923-14.24-7.385c0.413,0.72,0.825,1.439,1.238,2.159c0-11.634,0-23.267,0-34.901
				c0-6.562,0-13.124,0-19.685c0-1.134,0-2.268,0-3.401c0,1.205,0.411-1.626,0.616-2.289c5.467-17.645,29.791-20.911,44.678-14.614
				c6.452,2.729,11.43,8.102,13.886,14.625c1.153,3.065,1.214,3.913,1.214,6.161c0,17.683,0,35.367,0,53.05
				c0.413-0.72,0.825-1.439,1.238-2.159c-4.922,2.813-9.844,5.626-14.766,8.439c-0.763,0.436-1.238,1.284-1.238,2.158
				c0,19.337,0,38.673,0,58.01c0.833-0.833,1.667-1.667,2.5-2.5c-11.953,0-23.907,0-35.86,0
				C2061.389,242.937,2061.389,247.937,2064.613,247.937z"/>
		</g>
	</g>
	<g>
		<g>
			<path d="M2100.609,64.834c-0.326,10.094-7.972,17.74-18.066,18.067c-10.091,0.326-17.757-8.465-18.067-18.067
				c-0.326-10.091,8.466-17.756,18.067-18.067C2092.633,46.441,2100.299,55.233,2100.609,64.834c0.104,3.216,5.104,3.226,5,0
				c-0.416-12.856-10.211-22.651-23.066-23.067c-12.85-0.416-22.672,10.834-23.067,23.067c-0.416,12.85,10.835,22.671,23.067,23.067
				c12.85,0.416,22.671-10.835,23.066-23.067C2105.714,61.608,2100.714,61.618,2100.609,64.834z"/>
		</g>
	</g>
	<g>
		<polygon fill="#FFFFFF" points="2247.454,133.949 2306.519,133.949 2276.986,85.677 		"/>
		<g>
			<path d="M2247.454,136.449c19.688,0,39.376,0,59.064,0c1.866,0,3.154-2.134,2.159-3.762
				c-9.845-16.091-19.688-32.182-29.533-48.272c-0.988-1.617-3.328-1.617-4.316,0c-9.845,16.09-19.688,32.181-29.533,48.272
				c-1.688,2.758,2.639,5.269,4.318,2.523c9.844-16.091,19.688-32.181,29.531-48.272c-1.438,0-2.878,0-4.316,0
				c9.844,16.091,19.688,32.181,29.531,48.272c0.72-1.254,1.439-2.508,2.159-3.762c-19.688,0-39.376,0-59.064,0
				C2244.229,131.449,2244.229,136.449,2247.454,136.449z"/>
		</g>
	</g>
	<g>
		<polygon points="2306.519,158.452 2247.454,158.452 2276.986,206.724 		"/>
		<g>
			<path d="M2306.519,155.952c-19.688,0-39.376,0-59.064,0c-1.866,0-3.154,2.134-2.159,3.762
				c9.845,16.09,19.688,32.181,29.533,48.272c0.988,1.617,3.328,1.617,4.316,0c9.845-16.091,19.688-32.182,29.533-48.272
				c1.688-2.758-2.639-5.269-4.318-2.523c-9.844,16.09-19.688,32.181-29.531,48.272c1.438,0,2.878,0,4.316,0
				c-9.844-16.091-19.688-32.182-29.531-48.272c-0.72,1.254-1.439,2.508-2.159,3.762c19.688,0,39.376,0,59.064,0
				C2309.743,160.952,2309.743,155.952,2306.519,155.952z"/>
		</g>
	</g>
</g>
<g>
	<g>
		<rect x="640.33" y="-157.557" fill="#FFFFFF" width="40.182" height="28.838"/>
		<g>
			<path d="M680.512-131.219c-13.394,0-26.788,0-40.182,0c0.833,0.833,1.667,1.667,2.5,2.5c0-9.613,0-19.225,0-28.838
				c-0.833,0.833-1.667,1.667-2.5,2.5c13.394,0,26.788,0,40.182,0c-0.833-0.833-1.667-1.667-2.5-2.5c0,9.613,0,19.225,0,28.838
				c0,3.224,5,3.224,5,0c0-9.613,0-19.225,0-28.838c0-1.363-1.137-2.5-2.5-2.5c-13.394,0-26.788,0-40.182,0
				c-1.363,0-2.5,1.137-2.5,2.5c0,9.613,0,19.225,0,28.838c0,1.363,1.137,2.5,2.5,2.5c13.394,0,26.788,0,40.182,0
				C683.736-126.219,683.736-131.219,680.512-131.219z"/>
		</g>
	</g>
	<g>
		<rect x="489.052" y="-157.557" fill="#FFFFFF" width="40.184" height="28.838"/>
		<g>
			<path d="M529.235-131.219c-13.395,0-26.789,0-40.184,0c0.833,0.833,1.667,1.667,2.5,2.5c0-9.613,0-19.225,0-28.838
				c-0.833,0.833-1.667,1.667-2.5,2.5c13.395,0,26.789,0,40.184,0c-0.833-0.833-1.667-1.667-2.5-2.5c0,9.613,0,19.225,0,28.838
				c0,3.224,5,3.224,5,0c0-9.613,0-19.225,0-28.838c0-1.363-1.138-2.5-2.5-2.5c-13.395,0-26.789,0-40.184,0
				c-1.362,0-2.5,1.137-2.5,2.5c0,9.613,0,19.225,0,28.838c0,1.363,1.138,2.5,2.5,2.5c13.395,0,26.789,0,40.184,0
				C532.46-126.219,532.46-131.219,529.235-131.219z"/>
		</g>
	</g>
	<g>
		<path fill="#FFFFFF" d="M480.634-349.983c6.464-5.204,15.641-8.486,28.512-8.486c35.216,0,115.583,0,148.674,0
			c33.093,0,46.329,35.456,46.329,48.219c0,12.764,0,20.531,0,20.531"/>
		<g>
			<path d="M482.401-348.215c9.66-7.487,21.611-7.753,33.291-7.753c9.72,0,19.438,0,29.157,0c23.111,0,46.223,0,69.334,0
				c10.131,0,20.263,0,30.395,0c9.229,0,18.484-0.655,27.316,2.527c16.051,5.782,26.781,23.397,29.473,39.61
				c1.288,7.766,0.281,16.237,0.281,24.113c0,3.224,5,3.224,5,0c0-7.75,0.644-15.755-0.188-23.454
				c-0.747-6.912-3.253-13.59-6.368-19.759c-8.43-16.692-24.104-28.037-43.103-28.037c-42.366,0-84.732,0-127.098,0
				c-17.426,0-36.396-2.122-51.025,9.218C476.32-349.777,479.887-346.266,482.401-348.215L482.401-348.215z"/>
		</g>
	</g>
	<g>
		<path fill="#FFFFFF" d="M466.36-289.921c0,0,0-1.419,0-22.692c0-3.17,0.168-6.413,0.569-9.637"/>
		<g>
			<path d="M468.86-289.921c0-10.74-0.607-21.652,0.569-32.33c0.353-3.203-4.65-3.168-5,0c-1.177,10.678-0.569,21.59-0.569,32.33
				C463.86-286.697,468.86-286.697,468.86-289.921L468.86-289.921z"/>
		</g>
	</g>
	<g>
		<path fill="#FFFFFF" d="M466.36-219.011v43.493c0,0,1.418,26.473,22.691,26.473c13.237,0,175.386,0,193.823,0
			c18.437,0,17.491-25.528,17.491-25.528v-44.438"/>
		<g>
			<path d="M463.86-219.011c0,12.354,0,24.709,0,37.064c0,9.216,1.063,18.042,6.57,25.878c6.876,9.784,17.477,9.523,28.089,9.523
				c12.786,0,25.571,0,38.356,0c34.787,0,69.575,0,104.362,0c11.93,0,23.859,0,35.789,0c4.403,0,9.029,0.379,13.154-1.438
				c6.662-2.936,10.041-9.536,11.617-16.323c1.679-7.228,1.067-15.032,1.067-22.382c0-10.774,0-21.548,0-32.323c0-3.224-5-3.224-5,0
				c0,12.436,0,24.871,0,37.307c0,9.149,0.715,19.86-6.248,26.903c-3.76,3.803-9.254,3.256-14.142,3.256c-4.894,0-9.787,0-14.681,0
				c-15.112,0-30.225,0-45.337,0c-33.901,0-67.802,0-101.703,0c-8.716,0-17.433,0-26.148,0c-12.587,0-20.747-12.169-20.747-24.09
				c0-14.458,0-28.917,0-43.375C468.86-222.235,463.86-222.235,463.86-219.011L463.86-219.011z"/>
		</g>
	</g>
	<g>
		<path fill="#FFFFFF" d="M466.36-219.011c-19.581,0-31.2-15.873-31.2-35.455s15.874-35.456,35.455-35.456
			c19.582,0,35.455,15.874,35.455,35.456v11.816c0,0-2.836,21.746,11.347,21.746c14.18,0,123.386,0,136.622,0
			c13.235,0,10.872-22.692,10.872-22.692v-10.871c0-19.582,15.874-35.456,35.455-35.456s35.456,15.874,35.456,35.456
			s-15.875,35.455-35.456,35.455"/>
		<g>
			<path d="M466.36-221.511c-26.032-0.504-35.91-31.996-22.803-51.785c14.712-22.213,48.948-16.408,58.035,7.538
				c4.602,12.125-0.646,25.375,3.181,37.543c3.904,12.418,17.792,9.813,28.023,9.813c33.837,0,67.674,0,101.511,0
				c5.428,0,10.855,0,16.283,0c5.487,0,9.924-0.639,13.36-5.442c6.279-8.775,2.981-23.293,3.566-33.391
				c0.737-12.728,9.876-23.774,21.556-28.207c12.466-4.73,26.421-0.802,35.496,8.608c8.989,9.322,11.016,23.764,6.046,35.512
				c-5.124,12.115-17.316,19.563-30.249,19.813c-3.22,0.062-3.227,5.062,0,5c21.966-0.423,39.124-18.726,37.85-40.726
				c-1.235-21.326-21.62-37.709-42.649-34.857c-10.22,1.386-19.768,6.77-25.818,15.218c-5.521,7.707-7.337,16.196-7.337,25.517
				c0,8.904,3.065,27.956-9.845,27.956c-30.614,0-61.229,0-91.843,0c-13.382,0-26.764,0-40.146,0c-2.158,0-4.254,0.108-6.345-0.55
				c-3.861-1.214-5.048-6.298-5.612-9.74c-0.736-4.488-0.051-9.342-0.051-13.884c0-6.221,0.053-12.211-1.732-18.255
				c-2.224-7.522-7.152-14.104-13.307-18.862c-13.21-10.212-31.902-10.006-45.326-0.391c-26.887,19.26-16.938,67.894,18.155,68.574
				C469.587-216.449,469.58-221.449,466.36-221.511L466.36-221.511z"/>
		</g>
	</g>
	<g>
		<path fill="#FFFFFF" d="M536.563-295.595c0,7.571-6.139,13.709-13.71,13.709s-13.707-6.138-13.707-13.709
			c0-2.564,0.702-4.964,1.928-7.017c0.589-0.986,1.299-1.892,2.106-2.698c1.182-1.176,2.578-2.137,4.119-2.822
			c1.698-0.753,3.576-1.172,5.554-1.172C530.424-309.304,536.563-303.167,536.563-295.595z"/>
		<g>
			<path d="M534.063-295.595c-0.6,12.605-17.845,15.176-21.959,3.184c-2.487-7.25,3.699-14.021,10.749-14.393
				C529.172-307.138,533.784-301.449,534.063-295.595c0.152,3.209,5.153,3.225,5,0c-0.386-8.112-6.302-15.738-14.89-16.146
				c-10.054-0.478-17.942,7.415-17.465,17.466c0.408,8.588,8.032,14.503,16.145,14.889c9.116,0.433,15.807-7.731,16.21-16.209
				C539.216-298.82,534.215-298.805,534.063-295.595z"/>
		</g>
	</g>
	<g>
		<circle fill="#FFFFFF" cx="581" cy="-295.595" r="13.709"/>
		<g>
			<path d="M592.209-295.595c-0.687,14.442-21.731,14.442-22.418,0c-0.301-6.322,5.33-10.93,11.209-11.209
				C587.321-307.104,591.93-301.473,592.209-295.595c0.152,3.209,5.153,3.225,5,0c-0.434-9.13-7.079-15.775-16.209-16.209
				c-9.116-0.434-15.806,7.73-16.209,16.209c-0.434,9.117,7.73,15.806,16.209,16.209c9.116,0.433,15.806-7.731,16.209-16.209
				C597.362-298.82,592.361-298.805,592.209-295.595z"/>
		</g>
	</g>
	<g>
		<circle fill="#FFFFFF" cx="581" cy="-295.595" r="13.709"/>
		<g>
			<path d="M592.209-295.595c-0.687,14.442-21.731,14.442-22.418,0c-0.301-6.322,5.33-10.93,11.209-11.209
				C587.321-307.104,591.93-301.473,592.209-295.595c0.152,3.209,5.153,3.225,5,0c-0.434-9.13-7.079-15.775-16.209-16.209
				c-9.116-0.434-15.806,7.73-16.209,16.209c-0.434,9.117,7.73,15.806,16.209,16.209c9.116,0.433,15.806-7.731,16.209-16.209
				C597.362-298.82,592.361-298.805,592.209-295.595z"/>
		</g>
	</g>
	<g>
		<circle fill="#FFFFFF" cx="640.33" cy="-295.595" r="13.709"/>
		<g>
			<path d="M651.539-295.595c-0.687,14.442-21.731,14.442-22.418,0c-0.301-6.322,5.33-10.93,11.209-11.209
				C646.651-307.104,651.26-301.473,651.539-295.595c0.152,3.209,5.153,3.225,5,0c-0.434-9.13-7.079-15.775-16.209-16.209
				c-9.117-0.434-15.806,7.73-16.209,16.209c-0.434,9.117,7.73,15.806,16.209,16.209c9.116,0.433,15.806-7.731,16.209-16.209
				C656.692-298.82,651.691-298.805,651.539-295.595z"/>
		</g>
	</g>
</g>
<g>
	<g>
		<path fill="#FFFFFF" d="M897.379-223.258c6.826-11.506,12.537-21.821,13.665-25.797c1.621-5.715,2.263-23.396-13.208-20.754
			c-15.469,2.642-21.129,32.451-21.129,32.451s-2.884,7.975-10.943,3.773c-5.581-2.91-8.491-5.849-14.339-11.697
			c-5.848-5.848-2.265-16.225-2.265-16.225s3.016-8.479,9.657-16.963c1.87-2.389,4.028-4.779,6.487-6.979
			c2.307-2.064,4.878-3.963,7.727-5.539c4.912-2.719,10.646-4.479,17.26-4.479c29.054,0,37.356,16.602,41.129,25.281
			c2.162,4.975,5.813,13.198,27.229,13.198c20.076,0,19.675-5.823,26.352-12.443c6.803-8.755,35.471-45.658,35.471-45.658
			s12.074-36.602,59.618-31.696c0,0-1.388,14.492,2.642,26.036c3.934,6.689,24.526,39.244,15.094,46.79
			c-13.584,10.942-33.959-10.189-38.865-10.566c-24.527,43.394,19.432,102.635,19.432,102.635s7.317,10.608-5.848,18.112
			c-11.377,6.485-20.376-3.396-20.376-3.396s-22.64-55.091-77.354-53.581c-56.222,0.754-69.807,46.789-76.977,52.449
			c-13.974,18.142-35.808,0.073-27.545-11.697c1.565-2.229,7.348-11.16,14.095-21.966"/>
		<g>
			<path d="M899.538-221.997c7.322-12.379,22.421-32.136,10.727-46.645c-4.901-6.08-14.756-4.381-20.262-0.298
				c-6.345,4.705-9.892,12.523-12.538,19.732c-1.345,3.664-1.853,8.943-3.633,12.001c-3.054,5.242-9.693,0.058-12.873-2.478
				c-5.25-4.188-10.521-8.76-10.359-15.904c0.193-8.554,6.786-17.403,11.952-23.498c10.166-11.992,24.135-15.668,39.277-12.84
				c9.038,1.688,17.147,6.4,22.516,13.911c3.095,4.332,4.465,9.575,7.514,13.882c4.602,6.5,12.629,8.497,20.119,9.338
				c8.984,1.01,20.416,0.993,27.784-5.06c4.457-3.662,8.027-9.125,11.555-13.665c5.358-6.897,10.718-13.795,16.076-20.693
				c5.296-6.818,12.768-14.32,16.18-21.931c9.91-22.107,33.643-30.303,56.517-28.143c-0.833-0.833-1.667-1.667-2.5-2.5
				c-0.82,9.065-0.767,21.056,4.02,29.034c5.169,8.619,10.262,17.407,13.773,26.854c1.488,4.004,3.174,8.898,2.047,13.185
				c-1.409,5.357-10.097,4.597-13.963,3.55c-5.373-1.456-10.244-4.708-14.845-7.734c-2.651-1.745-5.751-4.526-8.997-5.04
				c-1.102-0.174-2.242,0.09-2.824,1.149c-18.023,32.812-1.832,73.483,17.302,102.098c1.597,2.388,3.072,4.217,3.702,7.121
				c1.34,6.176-5.201,10.624-10.241,12.14c-4.671,1.404-9.789-0.922-13.183-4.068c-1.2-1.112,0.751,1.968-0.099-0.047
				c-0.116-0.275-0.239-0.548-0.362-0.82c-0.637-1.415-1.337-2.8-2.058-4.174c-2.631-5.018-5.724-9.789-9.107-14.329
				c-9.999-13.417-23.027-24.286-38.656-30.477c-19.229-7.617-42.985-6.551-61.87,1.599c-14.923,6.44-26.551,17.498-35.614,30.806
				c-6.237,9.158-12.954,26.368-27.009,22.087c-6.367-1.939-11.008-9.327-6.889-15.274c4.859-7.016,9.305-14.349,13.828-21.582
				c1.715-2.742-2.612-5.25-4.316-2.523c-3.43,5.484-6.888,10.951-10.4,16.383c-1.984,3.067-4.476,6.042-5.502,9.594
				c-2.16,7.473,4.032,14.762,10.396,17.613c13.744,6.157,23.381-6.35,29.656-16.636c7.83-12.838,17.18-24.354,30.288-32.115
				c18.695-11.069,43.483-12.89,63.898-5.941c16.373,5.573,29.913,17.727,39.802,31.642c2.993,4.212,5.669,8.663,8,13.274
				c1.605,3.174,1.132,3.411,3.753,5.563c7.352,6.034,17.478,6.284,24.879,0.064c5.791-4.867,7.49-11.895,3.97-18.658
				c-1.196-2.298-2.979-4.377-4.377-6.556c-3.979-6.199-7.518-12.678-10.688-19.325c-10.945-22.952-17.723-51.381-4.785-74.933
				c-0.941,0.383-1.883,0.766-2.824,1.149c3.59,0.567,7.411,4.307,10.387,6.213c5.085,3.257,10.587,6.193,16.585,7.266
				c9.962,1.782,18.571-4.054,17.298-14.444c-1.351-11.011-7.622-21.651-13.044-31.108c-2.927-5.104-5.233-9.042-6.308-14.994
				c-1.031-5.708-1.146-11.824-0.623-17.604c0.131-1.449-1.243-2.381-2.5-2.5c-18.375-1.735-36.83,2.364-50.272,15.586
				c-3.801,3.738-7.016,8.166-9.507,12.873c-0.699,1.323-1.307,2.689-1.873,4.074c-0.881,2.155,0.838-0.84-0.143,0.422
				c-9.236,11.89-18.473,23.779-27.71,35.669c-3.891,5.008-7.865,9.878-11.919,14.748c-6.65,7.989-19.557,7.169-28.881,5.848
				c-7.324-1.038-12.993-4.134-16.017-10.948c-2.511-5.662-5.515-10.858-9.936-15.267c-6.402-6.384-15.28-9.861-24.122-11.037
				c-13.094-1.742-24.635,0.709-34.998,9.082c-8.106,6.551-14.285,16.285-17.931,25.978c-3.05,8.106-0.459,15.435,5.387,21.247
				c5.319,5.289,15.408,15.312,23.352,9.274c3.39-2.577,3.746-6.035,4.771-9.823c1.649-6.103,3.963-12.046,7.352-17.4
				c3.523-5.566,12.071-12.401,18.527-6.732c3.925,3.447,3.646,10.85,2.597,15.469c-0.745,3.279-2.684,6.4-4.235,9.342
				c-2.926,5.55-6.117,10.962-9.311,16.361C893.575-221.738,897.897-219.225,899.538-221.997L899.538-221.997z"/>
		</g>
	</g>
	<g>
		<g>
			<path d="M923.346-282.399c24.557,0,49.114,0,73.671,0c3.225,0,3.225-5,0-5c-24.557,0-49.114,0-73.671,0
				C920.121-287.399,920.121-282.399,923.346-282.399L923.346-282.399z"/>
		</g>
	</g>
	<g>
		<circle fill="#FFFFFF" cx="1024.386" cy="-321.661" r="9.434"/>
		<g>
			<path d="M1031.319-321.661c-0.481,8.939-13.386,8.939-13.867,0C1016.971-330.604,1030.84-330.557,1031.319-321.661
				c0.173,3.207,5.174,3.224,5,0c-0.363-6.748-5.186-11.57-11.934-11.933c-6.733-0.363-11.6,5.731-11.934,11.933
				c-0.362,6.734,5.731,11.6,11.934,11.934c6.733,0.363,11.6-5.732,11.934-11.934
				C1036.493-324.885,1031.492-324.868,1031.319-321.661z"/>
		</g>
	</g>
	<g>
		<path fill="#FFFFFF" d="M850.293-174.842c0,0,49.808,30.564,122.821,30.564c73.015,0,122.822-30.564,122.822-30.564
			s11.32-9.811,15.095-3.019c3.773,6.792-3.774,14.339-3.774,14.339s-38.487,36.79-134.143,36.79
			c-95.653,0-134.142-36.79-134.142-36.79s-9.311-6.831-3.65-12.868S850.293-174.842,850.293-174.842z"/>
		<g>
			<path d="M849.031-172.684c7.571,4.627,15.883,8.189,24.074,11.531c20.68,8.436,42.511,13.985,64.623,16.986
				c47.957,6.508,97.668-0.439,142.026-19.782c7.341-3.201,14.146-6.772,20.758-11.184c4.323-2.884,10.627-4.132,8.702,3.716
				c-0.542,2.209-2.132,4.647-3.804,6.201c-1.236,1.148-2.582,2.18-3.936,3.18c-25.792,19.045-59.559,27.151-90.812,30.766
				c-46.569,5.387-97.443,2.185-140.886-16.732c-9.183-3.999-18.17-8.815-26.163-14.887c-0.987-0.75-1.973-1.544-2.875-2.401
				c-1.867-1.775-6.739-5.467-3.65-9.333c2.992-3.744,9.437-0.04,11.436,1.547c2.497,1.983,6.06-1.531,3.535-3.535
				c-5.417-4.302-12.864-6.706-18.506-1.547c-2.727,2.492-3.182,6.77-1.63,9.984c0.799,1.657,1.848,3.062,3.076,4.424
				c0.474,0.525,1.01,0.995,1.54,1.46c0.187,0.164,1.713,1.531,0.669,0.539c3.922,3.729,8.701,6.729,13.312,9.502
				c33.147,19.944,73.6,26.605,111.672,27.852c42.688,1.397,87.985-4.023,126.392-23.88c6.896-3.565,13.685-7.681,19.605-12.737
				c2.431-2.075,4.438-4.989,5.472-7.99c2.768-8.033-2.114-16.024-10.947-12.884c-2.954,1.05-5.569,2.91-8.01,4.834
				c-1.011,0.797,0.264-0.125-0.198,0.152c-0.359,0.216-0.724,0.425-1.088,0.634c-3.794,2.174-7.724,4.112-11.683,5.964
				c-17.786,8.321-36.735,14.179-55.936,18.171c-50.403,10.481-103.666,5.388-151.366-13.844
				c-7.797-3.144-15.687-6.631-22.88-11.027C848.796-178.687,846.285-174.362,849.031-172.684z"/>
		</g>
	</g>
</g>
<g>
	<g>
		<g>
			<path d="M107.082,112.26c-5.934,0-11.868,0-17.803,0c-11.456,0-20.896-7.984-21.904-19.593
				c-1.088-12.511-0.04-25.524-0.04-38.077c0-7.541,0.585-14.262,6.143-20.13c4.227-4.463,10.167-6.142,16.127-6.142
				c7.542,0,15.085,0,22.627,0c55.157,0,110.315,0,165.473,0c7.853,0,14.859,0.873,20.733,7.076
				c7.871,8.312,5.258,23.937,5.258,34.395c0,10.692,2.254,24.578-4.036,33.89c-7.629,11.293-23.615,8.581-35.319,8.581
				c-3.225,0-3.225,5,0,5c5.933,0,11.864,0,17.797,0c9.31,0,17.377-4.451,22.563-12.128c3.768-5.576,3.996-12.03,3.996-18.471
				c0-7.594,0-15.187,0-22.78c0-4.864,0-9.728,0-14.592c0-10.342-6.256-19.533-15.573-23.785c-6.401-2.92-13.948-2.186-20.82-2.186
				c-56.091,0-112.183,0-168.274,0c-5.238,0-10.477,0-15.714,0c-9.904,0-18.696,5.715-23.252,14.387
				c-2.911,5.541-2.727,11.561-2.727,17.593c0,12.798-0.951,25.97,0.158,38.728c0.879,10.11,8.031,18.186,17.232,21.776
				c6.418,2.505,14.563,1.458,21.302,1.458c2.019,0,4.036,0,6.055,0C110.306,117.26,110.306,112.26,107.082,112.26L107.082,112.26z"
				/>
		</g>
	</g>
	<rect x="92.609" y="56.331" fill="#050606" stroke="#000000" stroke-miterlimit="10" width="186.203" height="26.209"/>
	<g>
		<path fill="#FFFFFF" d="M120.383,169.773v-75.89v-19.56v-6.648h130.655v184.247c0,0,0.195,6.259-5.869,6.259
			c-6.063,0-114.225,0-119.311,0s-5.476-5.086-5.476-5.086v-46.552"/>
		<g>
			<path d="M122.883,169.773c0-34.032,0-68.065,0-102.098c-0.833,0.833-1.667,1.667-2.5,2.5c43.552,0,87.104,0,130.655,0
				c-0.833-0.833-1.667-1.667-2.5-2.5c0,49.817,0,99.634,0,149.451c0,9.962,0,19.924,0,29.886c0,1.627,0,3.254,0,4.882
				c0,4.365-4.371,3.787-7.477,3.787c-29.711,0-59.423,0-89.134,0c-6.964,0-13.927,0-20.89,0c-4.095,0-8.155,0.396-8.155-4.271
				c0-14.955,0-29.91,0-44.866c0-3.225-5-3.225-5,0c0,12.44,0,24.882,0,37.323c0,3.619-0.65,7.895,0.451,11.422
				c1.558,4.99,6.219,5.393,10.604,5.393c29.25,0,58.502,0,87.752,0c9.493,0,18.986,0,28.479,0c8.785,0,8.369-8.589,8.369-14.774
				c0-25.879,0-51.759,0-77.638c0-33.531,0-67.063,0-100.594c0-1.363-1.137-2.5-2.5-2.5c-43.552,0-87.104,0-130.655,0
				c-1.362,0-2.5,1.137-2.5,2.5c0,34.032,0,68.065,0,102.098C117.883,172.998,122.883,172.998,122.883,169.773L122.883,169.773z"/>
		</g>
	</g>
	<rect x="146.853" y="67.676" width="30.252" height="190.506"/>
	<path d="M228.218,119.687c0,2.601-2.107,4.71-4.71,4.71h-21.873c-2.603,0-4.71-2.109-4.71-4.71V97.813
		c0-2.603,2.107-4.711,4.71-4.711h21.873c2.603,0,4.71,2.108,4.71,4.711V119.687z"/>
</g>
<g>
	<g>
		<path fill="#050606" d="M582.612,122.591c0-27.207,0-54.413,0-81.619c-1.055,0.804-2.109,1.607-3.164,2.411
			c25.184,5.365,51.199,7.82,76.816,9.854c56.73,4.505,113.988,4.136,170.665-0.958c22.044-1.981,44.37-4.334,66.062-8.897
			c-1.055-0.804-2.109-1.607-3.164-2.411c0,27.207,0,54.413,0,81.619c0,3.224,5,3.224,5,0c0-27.207,0-54.413,0-81.619
			c0-1.701-1.589-2.742-3.164-2.411c-25.924,5.453-52.675,7.902-79.038,9.903c-56.637,4.298-113.787,3.85-170.342-1.434
			c-20.53-1.918-41.308-4.166-61.507-8.469c-1.575-0.336-3.164,0.713-3.164,2.411c0,27.207,0,54.413,0,81.619
			C577.612,125.815,582.612,125.815,582.612,122.591L582.612,122.591z"/>
	</g>
</g>
<g>
	<g>
		<path fill="#050606" d="M595.422,65.255c0,40.473,0,80.945,0,121.418c0,1.783,1.587,2.632,3.165,2.411
			c34.177-4.789,71.516-7.101,106.83-8.187c50.185-1.543,100.676,0.232,150.525,6.419c4.268,0.53,8.539,1.081,12.785,1.768
			c1.578,0.255,3.165-0.653,3.165-2.411c0-40.473,0-80.945,0-121.418c0-1.775-1.587-2.643-3.165-2.411
			c-89.009,13.072-179.917,11.582-269.002,0.147c-0.341-0.044-2.575-0.341-1.139-0.147c-3.152-0.425-4.513,4.392-1.33,4.821
			c89.508,12.075,180.457,12.62,269.966,0.398c0.945-0.129,1.891-0.26,2.835-0.398c-1.056-0.804-2.11-1.607-3.165-2.411
			c0,40.473,0,80.945,0,121.418c1.055-0.804,2.109-1.607,3.165-2.411c-31.878-5.159-64.467-7.119-96.693-8.25
			c-52.852-1.855-105.934,0.383-158.502,6.115c-5.875,0.641-11.752,1.315-17.605,2.135c1.056,0.804,2.11,1.607,3.165,2.411
			c0-40.473,0-80.945,0-121.418C600.422,62.031,595.422,62.031,595.422,65.255z"/>
	</g>
</g>
<g>
	<g>
		<path fill="#050606" d="M576.818,146.2c0,21.585,0,43.171,0,64.756c0,1.738,1.587,2.692,3.165,2.41
			c30.646-5.475,61.91-8.298,92.938-10.377c56.521-3.787,113.47-3.251,169.796,3.025c16.083,1.792,32.335,3.823,48.151,7.352
			c1.574,0.352,3.164-0.725,3.164-2.41c0-21.585,0-43.171,0-64.756c0-3.225-5-3.225-5,0c0,21.585,0,43.171,0,64.756
			c1.055-0.804,2.109-1.607,3.164-2.41c-26.014-5.805-53.022-8.319-79.537-10.333c-57.724-4.384-115.857-3.028-173.451,2.529
			c-20.225,1.951-40.54,4.228-60.555,7.804c1.056,0.803,2.11,1.606,3.165,2.41c0-21.585,0-43.171,0-64.756
			C581.818,142.976,576.818,142.976,576.818,146.2L576.818,146.2z"/>
	</g>
</g>
<g>
	<polygon fill-rule="evenodd" clip-rule="evenodd" points="722.392,104.041 722.392,141.141 750.048,122.591 	"/>
	<g>
		<path d="M719.892,104.041c0,12.366,0,24.733,0,37.1c0,1.806,2.157,3.235,3.762,2.159c9.219-6.184,18.438-12.367,27.656-18.551
			c1.607-1.077,1.607-3.239,0-4.316c-9.219-6.184-18.438-12.367-27.656-18.551c-2.687-1.801-5.186,2.532-2.523,4.318
			c9.219,6.183,18.438,12.366,27.656,18.549c0-1.438,0-2.878,0-4.316c-9.219,6.183-18.438,12.366-27.656,18.549
			c1.254,0.72,2.508,1.439,3.762,2.159c0-12.366,0-24.733,0-37.1C724.892,100.816,719.892,100.816,719.892,104.041z"/>
	</g>
</g>
<g>
	<g>
		<path d="M627.546,252.709c-0.322,9.151-7.203,16.032-16.354,16.354c-9.146,0.322-16.05-7.685-16.354-16.354
			c-0.321-9.146,7.686-16.05,16.354-16.354C620.338,236.033,627.241,244.04,627.546,252.709c0.113,3.215,5.113,3.226,5,0
			c-0.42-11.928-9.427-20.935-21.354-21.354c-11.92-0.419-20.957,10.059-21.354,21.354c-0.419,11.92,10.059,20.957,21.354,21.354
			c11.92,0.419,20.957-10.058,21.354-21.354C632.659,249.483,627.659,249.494,627.546,252.709z"/>
	</g>
</g>
<g>
	<g>
		<path d="M690.837,252.709c-0.322,9.151-7.203,16.032-16.354,16.354c-9.146,0.322-16.05-7.685-16.354-16.354
			c-0.321-9.146,7.686-16.05,16.354-16.354C683.629,236.033,690.532,244.04,690.837,252.709c0.113,3.215,5.113,3.226,5,0
			c-0.42-11.928-9.427-20.935-21.354-21.354c-11.92-0.419-20.957,10.059-21.354,21.354c-0.419,11.92,10.059,20.957,21.354,21.354
			c11.92,0.419,20.957-10.058,21.354-21.354C695.95,249.483,690.95,249.494,690.837,252.709z"/>
	</g>
</g>
<g>
	<g>
		<path d="M752.574,252.709c-0.322,9.151-7.203,16.032-16.354,16.354c-9.146,0.322-16.05-7.685-16.354-16.354
			c-0.321-9.146,7.686-16.05,16.354-16.354C745.366,236.033,752.27,244.04,752.574,252.709c0.113,3.215,5.113,3.226,5,0
			c-0.42-11.928-9.427-20.935-21.354-21.354c-11.92-0.419-20.957,10.059-21.354,21.354c-0.419,11.92,10.059,20.957,21.354,21.354
			c11.92,0.419,20.957-10.058,21.354-21.354C757.688,249.483,752.688,249.494,752.574,252.709z"/>
	</g>
</g>
</svg>
