<svg xmlns="http://www.w3.org/2000/svg" xmlns:xlink="http://www.w3.org/1999/xlink" version="1.1" style="" xml:space="preserve" width="68.07820662340146" height="53.469265313798815"><rect id="backgroundrect" width="100%" height="100%" x="0" y="0" fill="none" stroke="none"/>

<g class="currentLayer" style=""><title>Layer 1</title><g id="svg_1" class="">
	<path d="M12.778208923339832,30.186578369140648 v-5.2 h-5.5 c-2.1,0 -3.8,-1.8 -3.8,-4.1 v-11.8 c0,-2.2 1.7000000000000002,-4.1 3.8,-4.1 h24.4 c2.1,0 3.8,1.8 3.8,4.1 v11.8 c0,2.2 -1.7000000000000002,4.1 -3.8,4.1 v2.9 c3.7,0 6.7,-3.1 6.7,-6.9 v-11.8 c0,-3.8 -3,-6.9 -6.7,-6.9 h-24.4 c-3.7,0 -6.7,3.1 -6.7,6.9 v11.8 c0,3.8 3,6.9 6.7,6.9 h2.6 v5.1 c0,0.8 0.5,1.5 1.2,1.8 c0.2,0.1 0.4,0.1 0.6000000000000002,0.1 c0.5,0 1,-0.2 1.4,-0.6000000000000002 l5.3,-6.3 h5.3 v-2.9 h-6.6 C17.178208923339866,24.986578369140602 12.778208923339832,30.186578369140648 12.778208923339832,30.186578369140648 z" id="svg_2"/>
	<path d="M57.378208923339855,17.686578369140648 h-16.5 v2.9 h16.5 c2.1,0 3.8,1.8 3.8,4.1 v11.8 c0,2.2 -1.7000000000000002,4.1 -3.8,4.1 h-5.5 v5.2 l-4.4,-5.2 h-14.5 c-2.1,0 -3.8,-1.8 -3.8,-4.1 V24.586578369140625 c0,-2.2 1.7000000000000002,-4.1 3.8,-4.1 v-2.9 c-3.7,0 -6.7,3.1 -6.7,6.9 v11.8 c0,3.8 3,6.9 6.7,6.9 h13.2 l5.3,6.3 c0.3000000000000001,0.4 0.8,0.6000000000000002 1.4,0.6000000000000002 c0.2,0 0.4,0 0.6000000000000002,-0.1 c0.7000000000000002,-0.3000000000000001 1.3,-1 1.3,-1.8 v-5.1 h2.6 c3.7,0 6.7,-3.1 6.7,-6.9 V24.586578369140625 C64.07820892333984,20.786578369140614 61.078208923339844,17.686578369140648 57.378208923339855,17.686578369140648 z" id="svg_3"/>
	<path d="M17.378208923339855,6.986578369140602 l-5.1,13.3 h3 l1,-3 h5 l1,3 h3 l-5,-13.3 H17.378208923339855 zM17.078208923339844,15.186578369140648 l1.7000000000000002,-4.9 h0 l1.7000000000000002,4.9 C20.578208923339844,15.186578369140648 17.078208923339844,15.186578369140648 17.078208923339844,15.186578369140648 z" id="svg_4"/>
	<path d="M38.77820892333983,33.4865783691406 c0,1.5 0.9,2.4 2.5,2.4 c1.8,0 3.6,-1.2 4.2,-1.7000000000000002 c0.6000000000000002,-0.5 2.2,-2.3 2.9,-3.8 c0.9,0.4 1.3,1.1 1.3,1.9 c0,1.7000000000000002 -1.6,2.7 -4.2,2.9 l1.3,1.7000000000000002 c4,-0.5 5.4,-2.2 5.4,-4.7 c0,-2.1 -1.3,-3.4 -3,-3.9 c0,-0.2 0.1,-0.3000000000000001 0.1,-0.5 l-2.3,-0.4 c0,0.2 -0.1,0.3000000000000001 -0.1,0.5 c-0.7000000000000002,0 -1.4,0 -2,0.1 c0,-0.4 0,-1.5 0,-1.9 c1.9,-0.1 3.8,-0.2 5.5,-0.5 l-0.2,-2.3 c-1.8,0.4 -3.5,0.5 -5.2,0.6000000000000002 c0,-0.5 0.1,-1.7000000000000002 0.1,-1.7000000000000002 l-2.4,-0.2 c0,0.6000000000000002 0,1.4 -0.1,2 c-1,0 -2,0 -3,0 l0.1,2.2 h0.3000000000000001 c0.6000000000000002,0 1.7000000000000002,0 2.6,-0.1 c0,0.6000000000000002 0,1.9 0,2.5 C40.378208923339855,29.586578369140625 38.77820892333983,31.286578369140614 38.77820892333983,33.4865783691406 zM46.078208923339844,29.986578369140602 c-0.3000000000000001,0.7000000000000002 -0.7000000000000002,1.2 -1.2,1.7000000000000002 c-0.1,-0.5 -0.1,-1 -0.1,-1.6 C44.97820892333982,30.086578369140625 45.67820892333987,29.986578369140602 46.078208923339844,29.986578369140602 zM42.67820892333987,30.886578369140636 c0.1,0.9 0.2,1.7000000000000002 0.3000000000000001,2.5 c-0.4,0.2 -0.8,0.3000000000000001 -1.2,0.3000000000000001 c-0.8,0 -0.8,-0.5 -0.8,-0.7000000000000002 C41.078208923339844,32.18657836914065 41.67820892333987,31.386578369140636 42.67820892333987,30.886578369140636 z" id="svg_5"/>
</g></g></svg>